<?xml version="1.0" encoding="utf-8"?>
<!-- Generator: Adobe Illustrator 25.2.0, SVG Export Plug-In . SVG Version: 6.00 Build 0)  -->
<svg version="1.1" id="Layer_1" xmlns="http://www.w3.org/2000/svg" xmlns:xlink="http://www.w3.org/1999/xlink" x="0px" y="0px"
	 viewBox="0 0 60 60" style="enable-background:new 0 0 60 60;" xml:space="preserve">
<style type="text/css">
	.st0{fill:#010101;}
	.st1{fill:#F05825;}
	.st2{fill-rule:evenodd;clip-rule:evenodd;fill:#0B1019;}
	.st3{fill-rule:evenodd;clip-rule:evenodd;fill:#F05825;}
</style>
<g id="About_Us">
	<g>
		<g>
			<path class="st0" d="M38.5,22H24.6c-0.5,0-0.9,0.4-0.9,0.9s0.4,0.9,0.9,0.9h13.9c0.5,0,0.9-0.4,0.9-0.9S39,22,38.5,22z"/>
			<path class="st0" d="M47.6,28.6c0-0.5-0.4-0.9-0.9-0.9H28.2c-0.5,0-0.9,0.4-0.9,0.9s0.4,0.9,0.9,0.9h18.6
				C47.2,29.4,47.6,29,47.6,28.6z"/>
			<path class="st0" d="M31.3,33.5h-9c-0.5,0-0.9,0.4-0.9,0.9s0.4,0.9,0.9,0.9h9c0.5,0,0.9-0.4,0.9-0.9S31.8,33.5,31.3,33.5z"/>
			<path class="st0" d="M31.3,39.2h-9c-0.5,0-0.9,0.4-0.9,0.9s0.4,0.9,0.9,0.9h9c0.5,0,0.9-0.4,0.9-0.9
				C32.2,39.6,31.8,39.2,31.3,39.2z"/>
			<path class="st0" d="M54.1,32.9H42c-2.7,0-4.9,2.2-4.9,4.9v12.1c0,2.7,2.2,4.9,4.9,4.9h12.1c2.7,0,4.9-2.2,4.9-4.9V37.8
				C59,35.1,56.8,32.9,54.1,32.9z M54.1,53.1H42c-0.3,0-0.5,0-0.7-0.1c0.4-2.6,2.2-4.8,4.8-5.6c0.6,0.3,1.3,0.4,2.1,0.4
				c0.7,0,1.4-0.2,2.1-0.4c2.5,0.8,4.4,3,4.8,5.6C54.7,53.1,54.4,53.1,54.1,53.1L54.1,53.1z M44.6,42.7c0-1.9,1.6-3.5,3.5-3.5
				s3.5,1.6,3.5,3.5s-1.6,3.5-3.5,3.5C46.2,46.2,44.6,44.6,44.6,42.7z M57.3,49.9c0,0.8-0.3,1.6-0.8,2.2c-0.6-2.5-2.3-4.7-4.6-5.8
				c0.9-0.9,1.5-2.2,1.5-3.6c0-2.9-2.3-5.2-5.2-5.2S43,39.8,43,42.7c0,1.4,0.6,2.7,1.5,3.6c-2.4,1.1-4.1,3.3-4.7,5.9
				c-0.6-0.6-0.9-1.4-0.9-2.3V37.8c0-1.8,1.4-3.2,3.2-3.2h12.1c1.8,0,3.2,1.4,3.2,3.2L57.3,49.9L57.3,49.9z"/>
			<path class="st0" d="M34,49.7H4.6c-1,0-1.9-0.9-1.9-1.9V15.5h50.6v14.4c0,0.5,0.4,0.9,0.9,0.9s0.9-0.4,0.9-0.9V8.8
				c0-2-1.6-3.6-3.6-3.6H4.6C2.6,5.2,1,6.8,1,8.8v39.1c0,2,1.6,3.6,3.6,3.6H34c0.5,0,0.9-0.4,0.9-0.9C34.8,50.1,34.4,49.7,34,49.7z
				 M2.7,8.8c0-1,0.9-1.9,1.9-1.9h46.8c1,0,1.9,0.9,1.9,1.9v5H2.7V8.8z"/>
			<path class="st1" d="M20.1,9.2H6.2c-0.5,0-0.9,0.4-0.9,0.9S5.7,11,6.2,11h13.9c0.5,0,0.9-0.4,0.9-0.9C21,9.6,20.6,9.2,20.1,9.2z"
				/>
		</g>
	</g>
	<g>
		<path class="st2" d="M10.2,26.9c2,0.1,3.5-1,4.5-2.9l0,0c0.3-0.5,0.8-0.9,1.5-0.9c0.6,0,1.2,0.4,1.5,0.9c1.1,1.9,2.5,3,4.5,2.9
			h0.1c0.9,0,1.7,0.7,1.7,1.7c0,0.9-0.7,1.7-1.7,1.7c-0.7,0-1.3-0.4-1.5-1l0,0c-0.8-1.7-2.7-2.8-4.6-2.8l0,0l0,0
			c-1.9,0-3.7,1.1-4.6,2.8l0,0c-0.3,0.6-0.8,1-1.5,1c-0.9,0-1.7-0.7-1.7-1.7C8.4,27.7,9.1,26.9,10.2,26.9L10.2,26.9z M17.4,38.4
			c-0.8-1.2-0.9-3.8,0.6-5.8l0,0c0.3-0.4,0.5-0.9,0.5-1.5c0-1.3-1.1-2.4-2.4-2.4s-2.4,1.1-2.4,2.4c0,0.6,0.2,1.1,0.5,1.5l0,0
			c1.6,2,1.5,4.6,0.6,5.8l-0.1,0.1l0,0l0,0c-0.2,0.3-0.3,0.6-0.3,0.9c0,0.9,0.7,1.6,1.6,1.6s1.6-0.7,1.6-1.6
			C17.6,39,17.5,38.7,17.4,38.4L17.4,38.4L17.4,38.4C17.5,38.5,17.5,38.4,17.4,38.4L17.4,38.4z M16.2,29.5c-0.9,0-1.6,0.7-1.6,1.6
			s0.7,1.6,1.6,1.6c0.9,0,1.6-0.7,1.6-1.6C17.8,30.3,17.1,29.5,16.2,29.5z"/>
		<path class="st3" d="M16.2,32.4c0.7,0,1.3-0.6,1.3-1.3c0-0.7-0.6-1.3-1.3-1.3c-0.7,0-1.3,0.6-1.3,1.3
			C14.9,31.9,15.5,32.4,16.2,32.4z"/>
	</g>
</g>
</svg>
