<?xml version="1.0" encoding="utf-8"?>
<!-- Generator: Adobe Illustrator 25.2.0, SVG Export Plug-In . SVG Version: 6.00 Build 0)  -->
<svg version="1.1" id="Layer_1" xmlns="http://www.w3.org/2000/svg" xmlns:xlink="http://www.w3.org/1999/xlink" x="0px" y="0px"
	 viewBox="0 0 60 60" style="enable-background:new 0 0 60 60;" xml:space="preserve">
<style type="text/css">
	.st0{fill:#F15A29;}
	.st1{fill:#010101;}
	.st2{fill:#0B1019;}
</style>
<g id="Blog">
	<g>
		<g>
			<path class="st0" d="M26.3,11.4H12.6c-0.6,0-1-0.5-1-1s0.5-1,1-1h13.7c0.6,0,1,0.5,1,1S26.9,11.4,26.3,11.4z"/>
		</g>
		<g>
			<path class="st0" d="M26.3,17.1H12.6c-0.6,0-1-0.5-1-1s0.5-1,1-1h13.7c0.6,0,1,0.5,1,1S26.9,17.1,26.3,17.1z"/>
		</g>
		<g>
			<path class="st1" d="M26.3,22.9H12.6c-0.6,0-1-0.5-1-1s0.5-1,1-1h13.7c0.6,0,1,0.5,1,1S26.9,22.9,26.3,22.9z"/>
		</g>
		<g>
			<path class="st0" d="M48.4,11.4H34.7c-0.6,0-1-0.5-1-1s0.5-1,1-1h13.7c0.6,0,1,0.5,1,1S49,11.4,48.4,11.4z"/>
		</g>
		<g>
			<path class="st0" d="M48.4,17.1H34.7c-0.6,0-1-0.5-1-1s0.5-1,1-1h13.7c0.6,0,1,0.5,1,1S49,17.1,48.4,17.1z"/>
		</g>
		<g>
			<path class="st1" d="M48.4,22.9H34.7c-0.6,0-1-0.5-1-1s0.5-1,1-1h13.7c0.6,0,1,0.5,1,1S49,22.9,48.4,22.9z"/>
		</g>
		<g>
			<path class="st1" d="M26.3,29.4H12.6c-0.6,0-1-0.5-1-1s0.5-1,1-1h13.7c0.6,0,1,0.5,1,1S26.9,29.4,26.3,29.4z"/>
		</g>
		<g>
			<path class="st1" d="M48.4,29.4H34.7c-0.6,0-1-0.5-1-1s0.5-1,1-1h13.7c0.6,0,1,0.5,1,1S49,29.4,48.4,29.4z"/>
		</g>
		<g>
			<path class="st1" d="M44.6,34.6h3.8c0.6,0,1,0.5,1,1c0,0.6-0.5,1-1,1h-3.8"/>
		</g>
		<path class="st2" d="M55.1,2.1H4.9C3,2.1,1.4,3.7,1.4,5.7v42.7c0,1.9,1.6,3.5,3.5,3.5h14.2v-1.4H4.9c-1.2,0-2.1-1-2.1-2.1V5.7
			c0-1.2,1-2.1,2.1-2.1H55c1.2,0,2.1,1,2.1,2.1v42.7c0,1.2-1,2.1-2.1,2.1H42.3v1.4h12.8c1.9,0,3.5-1.6,3.5-3.5V5.7
			C58.6,3.7,57,2.1,55.1,2.1z"/>
		<path class="st2" d="M39.4,57.3H22c-1.9,0-3.5-1.6-3.5-3.5V36.6c0-1.9,1.6-3.5,3.5-3.5h17.5c1.9,0,3.5,1.6,3.5,3.5v17.2
			C43,55.7,41.4,57.3,39.4,57.3z M22,34.4c-1.2,0-2.1,1-2.1,2.1v17.2c0,1.2,1,2.1,2.1,2.1h17.5c1.2,0,2.1-1,2.1-2.1V36.6
			c0-1.2-1-2.1-2.1-2.1L22,34.4L22,34.4z"/>
		<g>
			<path class="st1" d="M44.6,41.5h3.8c0.6,0,1,0.5,1,1c0,0.6-0.5,1-1,1h-3.8"/>
		</g>
		<g>
			<path class="st1" d="M16.4,34.6h-3.8c-0.6,0-1,0.5-1,1c0,0.6,0.5,1,1,1h3.8"/>
		</g>
		<g>
			<path class="st1" d="M16.4,41.5h-3.8c-0.6,0-1,0.5-1,1c0,0.6,0.5,1,1,1h3.8"/>
		</g>
		<path class="st0" d="M37.5,48.2v-2.8v-1.3h-2.4v-2.9L35,41c-0.3-0.8-1.3-2.3-3.5-2.3h-4.3c-0.3,0-1.5,0.1-2.3,0.9
			c-0.4,0.4-0.6,1-0.6,1.6v7.6v0.1V49c0.2,0.8,1.1,2.3,3.3,2.3h6.6h0.1C35.5,51.4,37.6,50.5,37.5,48.2z M27.2,41.3L27.2,41.3h4.3
			c0.6,0,0.8,0.2,1,0.4v2.1h-5.6v-2.4C27,41.3,27.1,41.3,27.2,41.3z M34.1,49h-6.4c-0.5,0-0.7-0.2-0.8-0.3v-2H35v1.5
			C35,48.8,34.3,48.9,34.1,49z"/>
	</g>
</g>
</svg>
