<?xml version="1.0" encoding="utf-8"?>
<!-- Generator: Adobe Illustrator 25.2.0, SVG Export Plug-In . SVG Version: 6.00 Build 0)  -->
<svg version="1.1" id="Layer_1" xmlns="http://www.w3.org/2000/svg" xmlns:xlink="http://www.w3.org/1999/xlink" x="0px" y="0px"
	 viewBox="0 0 60 60" style="enable-background:new 0 0 60 60;" xml:space="preserve">
<style type="text/css">
	.st0{fill:#F15A29;}
	.st1{fill:#F15A27;}
	.st2{fill:#0B1019;}
</style>
<g id="Careers">
	<g>
		<g>
			<path d="M38,18.7c-2.1,0-3.8-1.7-3.8-3.8s1.7-3.8,3.8-3.8s3.8,1.7,3.8,3.8S40.1,18.7,38,18.7z M38,11.9c-1.6,0-3,1.3-3,3
				s1.3,3,3,3c1.6,0,3-1.3,3-3S39.7,11.9,38,11.9z"/>
		</g>
		<g>
			<path class="st0" d="M29.9,33.6c-3.8,0-6.9-3.1-6.9-6.9s3.1-6.9,6.9-6.9s6.9,3.1,6.9,6.9S33.7,33.6,29.9,33.6z"/>
			<path class="st0" d="M42,55.5H17.7V44.7c0-5,7.8-7.5,12.1-7.5S42,39.7,42,44.7V55.5z M19.1,54.1h21.6v-9.3c0-4-7.1-6.2-10.8-6.2
				s-10.8,2.2-10.8,6.2C19.1,44.8,19.1,54.1,19.1,54.1z"/>
		</g>
		<g>
			<path d="M14.8,33.3c-3.5,0-6.3-2.8-6.3-6.3s2.8-6.3,6.3-6.3s6.3,2.8,6.3,6.3S18.2,33.3,14.8,33.3z M14.8,22.1
				c-2.7,0-4.9,2.2-4.9,4.9s2.2,4.9,4.9,4.9s4.9-2.2,4.9-4.9S17.5,22.1,14.8,22.1z"/>
			<path d="M15.4,52.6H1v-9.8c0-5.1,9.7-7.2,13.8-7.2c1.3,0,2.9,0.2,4.6,0.5l1.8,0.4l-1.6,0.9c-3.4,1.9-4.1,4.2-4.1,5.9L15.4,52.6
				L15.4,52.6z M2.4,51.2h11.7v-7.9c0-1.4,0.5-4,3.3-6.1c-1-0.1-1.8-0.2-2.6-0.2c-4.4,0-12.4,2.2-12.4,5.9
				C2.4,42.9,2.4,51.2,2.4,51.2z"/>
		</g>
		<g>
			<path d="M45.2,33.3c-3.5,0-6.3-2.8-6.3-6.3s2.8-6.3,6.3-6.3s6.3,2.8,6.3,6.3S48.7,33.3,45.2,33.3z M45.2,22.1
				c-2.7,0-4.9,2.2-4.9,4.9s2.2,4.9,4.9,4.9s4.9-2.2,4.9-4.9S48,22.1,45.2,22.1z"/>
			<path d="M59,52.6H44.6v-9.3c0-1.7-0.7-4-4.1-5.9l-1.6-0.9l1.8-0.4c1.7-0.3,3.3-0.5,4.6-0.5c4,0,13.8,2.1,13.8,7.2L59,52.6
				L59,52.6z M45.9,51.2h11.7v-8.4c0-3.6-8-5.9-12.4-5.9c-0.7,0-1.6,0.1-2.6,0.2c2.8,2.1,3.3,4.7,3.3,6.1
				C45.9,43.2,45.9,51.2,45.9,51.2z"/>
		</g>
		<path class="st1" d="M28.8,44.9c-0.2,0.8-0.5,1.7-0.7,2.5c0,0.1,0,0.2,0,0.3c0.6,0.9,1.2,1.8,1.9,2.7c0.1-0.1,0.2-0.2,0.2-0.2
			c0.5-0.7,1-1.5,1.5-2.2c0.2-0.2,0.3-0.5,0.2-0.8c-0.2-0.7-0.4-1.4-0.6-2.1c-0.2-0.7-0.4-1.3-0.5-2c0-0.1,0-0.3,0.1-0.4
			c0.2-0.3,0.4-0.7,0.6-1c0.1-0.1,0.1-0.2,0-0.4c-0.4-0.4-0.9-0.8-1.3-1.2c-0.1-0.1-0.2-0.1-0.3,0c-0.4,0.4-0.9,0.8-1.3,1.2
			c-0.1,0.1-0.1,0.2,0,0.3c0.2,0.3,0.4,0.7,0.7,1c0.1,0.1,0.1,0.2,0.1,0.3C29.1,43.7,28.9,44.3,28.8,44.9z"/>
		<g>
			<path d="M21.6,18.7c-2.1,0-3.8-1.7-3.8-3.8s1.7-3.8,3.8-3.8s3.8,1.7,3.8,3.8S23.7,18.7,21.6,18.7z M21.6,11.9c-1.6,0-3,1.3-3,3
				s1.3,3,3,3c1.6,0,3-1.3,3-3S23.2,11.9,21.6,11.9z"/>
		</g>
		<g>
			<path d="M30,16.6c-0.9,0-1.6-0.7-1.6-1.6c0-0.9,0.7-1.6,1.6-1.6s1.6,0.7,1.6,1.6C31.6,15.8,30.9,16.6,30,16.6z M30,13.6
				c-0.7,0-1.3,0.6-1.3,1.3s0.6,1.3,1.3,1.3c0.7,0,1.3-0.6,1.3-1.3C31.3,14.2,30.7,13.6,30,13.6z"/>
		</g>
		<path class="st2" d="M56.7,32h-1.4V8c0-1.1-0.9-2.1-2.1-2.1H6.7C5.6,5.9,4.6,6.8,4.6,8v24H3.3V8c0-1.9,1.5-3.4,3.4-3.4h46.6
			c1.9,0,3.4,1.5,3.4,3.4V32z"/>
	</g>
</g>
</svg>
