<?xml version="1.0" encoding="utf-8"?>
<!-- Generator: Adobe Illustrator 25.2.0, SVG Export Plug-In . SVG Version: 6.00 Build 0)  -->
<svg version="1.1" id="Layer_1" xmlns="http://www.w3.org/2000/svg" xmlns:xlink="http://www.w3.org/1999/xlink" x="0px" y="0px"
	 viewBox="0 0 60 60" style="enable-background:new 0 0 60 60;" xml:space="preserve">
<style type="text/css">
	.st0{fill:#010101;}
	.st1{fill:#F15A29;}
</style>
<g id="Contacts">
	<g>
		<path class="st0" d="M3,23.6c-0.4,0-0.8-0.4-0.8-0.8c0-0.3,0.1-0.5,0.3-0.6l8-5.8c0.4-0.3,0.9-0.2,1.1,0.2s0.2,0.9-0.2,1.1l0,0
			l-8,5.8C3.3,23.6,3.1,23.6,3,23.6z"/>
		<path class="st0" d="M57.1,57.8H41.3c-0.4,0-0.8-0.4-0.8-0.8c0-0.4,0.4-0.8,0.8-0.8h14.9V22.8c0-0.4,0.4-0.8,0.8-0.8
			c0.4,0,0.8,0.4,0.8,0.8V57C57.9,57.5,57.5,57.8,57.1,57.8z"/>
		<path class="st0" d="M42.2,57.8H3c-0.4,0-0.8-0.4-0.8-0.8V22.8C2.2,22.4,2.5,22,3,22s0.8,0.4,0.8,0.8v33.4h38.4
			c0.4,0,0.8,0.4,0.8,0.8C43,57.5,42.6,57.8,42.2,57.8z"/>
		<path class="st0" d="M23.2,40.7c-0.2,0-0.4-0.1-0.5-0.2L2.4,23.4c-0.3-0.3-0.4-0.8-0.1-1.1c0.3-0.3,0.8-0.4,1.1-0.1l0,0l20.3,17.1
			c0.3,0.3,0.4,0.8,0.1,1.1C23.7,40.6,23.5,40.7,23.2,40.7z"/>
		<path class="st0" d="M36.8,40.7c-0.4,0-0.8-0.4-0.8-0.8c0-0.2,0.1-0.5,0.3-0.6l20.3-17.1c0.3-0.3,0.8-0.2,1.1,0.1
			c0.3,0.3,0.2,0.8-0.1,1.1L37.3,40.5C37.2,40.7,37,40.7,36.8,40.7z"/>
		<path class="st0" d="M57.1,23.6c-0.2,0-0.3-0.1-0.5-0.2l-8-5.8c-0.4-0.3-0.4-0.8-0.2-1.1c0.3-0.4,0.8-0.4,1.1-0.2l8,5.8
			c0.4,0.3,0.4,0.8,0.2,1.1C57.5,23.5,57.3,23.6,57.1,23.6z"/>
		<path class="st0" d="M38.7,10.1c-0.2,0-0.3-0.1-0.5-0.2l-8.2-6l-8.2,6c-0.4,0.3-0.9,0.2-1.1-0.2c-0.3-0.4-0.2-0.9,0.2-1.1l8.7-6.4
			c0.3-0.2,0.7-0.2,0.9,0l8.7,6.4c0.4,0.3,0.4,0.8,0.2,1.1C39.2,10,38.9,10.1,38.7,10.1z"/>
		<path class="st0" d="M49.1,30.3c-0.4,0-0.8-0.4-0.8-0.8V10.1H11.7v19.4c0,0.4-0.4,0.8-0.8,0.8c-0.4,0-0.8-0.4-0.8-0.8V9.3
			c0-0.4,0.4-0.8,0.8-0.8h38.2c0.4,0,0.8,0.4,0.8,0.8v20.2C49.9,30,49.5,30.3,49.1,30.3z"/>
		<path class="st1" d="M42.1,16.2H17.9c-0.4,0-0.8-0.4-0.8-0.8c0-0.4,0.4-0.8,0.8-0.8H42c0.4,0,0.8,0.4,0.8,0.8
			C42.9,15.8,42.5,16.2,42.1,16.2L42.1,16.2z"/>
		<path class="st1" d="M42.1,22H17.9c-0.4,0-0.8-0.4-0.8-0.8s0.4-0.8,0.8-0.8H42c0.4,0,0.8,0.4,0.8,0.8S42.5,22,42.1,22L42.1,22z"/>
		<path class="st0" d="M42.1,27.9H17.9c-0.4,0-0.8-0.4-0.8-0.8s0.4-0.8,0.8-0.8H42c0.4,0,0.8,0.4,0.8,0.8S42.5,27.9,42.1,27.9
			L42.1,27.9z"/>
		<path class="st0" d="M57.1,57.8c-0.2,0-0.4-0.1-0.5-0.2L35,39.4c-2.9-2.4-7-2.4-9.9,0L3.5,57.7C3.2,58,2.7,58,2.4,57.6
			c-0.3-0.3-0.3-0.8,0.1-1.1l0,0L24,38.2c3.4-2.9,8.5-2.9,12,0l21.6,18.2c0.3,0.3,0.4,0.8,0.1,1.1C57.5,57.7,57.3,57.8,57.1,57.8z"
			/>
		<path class="st0" d="M37.5,33.4h-15c-0.4,0-0.8-0.4-0.8-0.8c0-0.4,0.4-0.8,0.8-0.8h15c0.4,0,0.8,0.4,0.8,0.8S37.9,33.4,37.5,33.4
			L37.5,33.4z"/>
	</g>
</g>
</svg>
