<?xml version="1.0" encoding="utf-8"?>
<!-- Generator: Adobe Illustrator 25.2.0, SVG Export Plug-In . SVG Version: 6.00 Build 0)  -->
<svg version="1.1" id="Layer_1" xmlns="http://www.w3.org/2000/svg" xmlns:xlink="http://www.w3.org/1999/xlink" x="0px" y="0px"
	 viewBox="0 0 60 60" style="enable-background:new 0 0 60 60;" xml:space="preserve">
<style type="text/css">
	.st0{fill:#F15A27;}
	.st1{fill:#0F131B;}
	.st2{fill:#0B1019;}
	.st3{fill:#F15A29;}
	.st4{fill:#010101;}
</style>
<g id="Free_E-Book">
	<g>
		<g>
			<path class="st0" d="M30,12.7L30,12.7c-2.9,0-5.6,1.1-7.7,3.2c-1.5,1.5-2.5,3.3-2.9,5.3H21c0.4-1.6,1.2-3,2.4-4.2
				c1.7-1.8,4-2.7,6.5-2.7l0,0c2.4,0,4.7,1,6.5,2.7c1.2,1.2,2,2.7,2.4,4.2h1.6c-0.4-2-1.4-3.9-2.9-5.4C35.6,13.8,32.9,12.7,30,12.7z
				"/>
			<path class="st1" d="M9.9,18.8l3.1,2.4h2.5l0,0l-4.7-3.7c-0.1-0.1-0.1-0.2,0-0.3l4.1-7.2c0.1-0.1,0.3,0,0.3,0l5.6,2.2l0.4-0.3
				c1-0.8,2.1-1.4,3.3-1.9l0.4-0.2l0.8-5.9c0-0.1,0.1-0.2,0.2-0.2h8.2l0,0c0.2,0,0.2,0.2,0.2,0.2l0.9,5.9l0.4,0.2
				c1.1,0.5,2.2,1.1,3.3,1.9l0.4,0.3l5.5-2.2c0.1,0,0.2,0,0.3,0.1l4.1,7.1c0.1,0.1,0,0.2,0,0.3l-4.7,3.7v0.1h2.4l3.3-2.6
				c0.7-0.5,0.9-1.5,0.4-2.3l-4.1-7.1c-0.4-0.8-1.3-1.1-2.2-0.8l-4.8,1.9c-0.9-0.7-1.9-1.2-2.9-1.7l-0.7-5.1
				c-0.2-0.9-0.9-1.5-1.8-1.5l0,0h-8.2c-0.9,0-1.7,0.7-1.8,1.6l-0.7,5c-1,0.4-2,1-2.9,1.7l-4.7-1.9c-0.9-0.3-1.8,0-2.2,0.8l-4.1,7.1
				C9,17.3,9.2,18.3,9.9,18.8z"/>
		</g>
		<path class="st2" d="M56.2,57.9H3.8c-1.1,0-1.9-0.9-1.9-1.9V22.8c0-1.1,0.9-1.9,1.9-1.9h20.5c1.8,0,3.6,0.7,5,1.9
			c0.3,0.2,0.5,0.5,0.7,0.7c0.2-0.3,0.5-0.5,0.7-0.7c1.4-1.2,3.2-1.9,5-1.9h20.5c1.1,0,1.9,0.9,1.9,1.9v33.1
			C58.1,57,57.3,57.9,56.2,57.9z M35.7,56.3h20.5c0.2,0,0.3-0.2,0.3-0.3V22.8c0-0.2-0.2-0.3-0.3-0.3H35.8c-1.5,0-2.9,0.5-4,1.5
			c-0.4,0.4-0.8,0.8-1.1,1.3l-0.7,1l-0.7-1c-0.3-0.5-0.7-0.9-1.1-1.3c-1.1-1-2.5-1.5-4-1.5H3.8c-0.2,0-0.3,0.2-0.3,0.3v33.1
			c0,0.2,0.2,0.3,0.3,0.3h31.9V56.3z"/>
		<g>
			<path class="st3" d="M24.6,29.7H9.3c-0.6,0-1.1-0.5-1.1-1.1s0.5-1.1,1.1-1.1h15.3c0.6,0,1.1,0.5,1.1,1.1S25.2,29.7,24.6,29.7z"/>
		</g>
		<g>
			<path class="st3" d="M24.6,35.1H9.3c-0.6,0-1.1-0.5-1.1-1.1s0.5-1.1,1.1-1.1h15.3c0.6,0,1.1,0.5,1.1,1.1S25.2,35.1,24.6,35.1z"/>
		</g>
		<g>
			<path class="st4" d="M24.6,40.5H9.3c-0.6,0-1.1-0.5-1.1-1.1s0.5-1.1,1.1-1.1h15.3c0.6,0,1.1,0.5,1.1,1.1S25.2,40.5,24.6,40.5z"/>
		</g>
		<g>
			<path class="st4" d="M24.6,45.9H9.3c-0.6,0-1.1-0.5-1.1-1.1s0.5-1.1,1.1-1.1h15.3c0.6,0,1.1,0.5,1.1,1.1S25.2,45.9,24.6,45.9z"/>
		</g>
		<g>
			<path class="st4" d="M24.6,51.3H9.3c-0.6,0-1.1-0.5-1.1-1.1S8.6,49,9.3,49h15.3c0.6,0,1.1,0.5,1.1,1.1S25.2,51.3,24.6,51.3z"/>
		</g>
		<g>
			<path class="st3" d="M50.7,29.7H35.4c-0.6,0-1.1-0.5-1.1-1.1s0.5-1.1,1.1-1.1h15.3c0.6,0,1.1,0.5,1.1,1.1S51.3,29.7,50.7,29.7z"
				/>
		</g>
		<g>
			<path class="st3" d="M50.7,35.1H35.4c-0.6,0-1.1-0.5-1.1-1.1s0.5-1.1,1.1-1.1h15.3c0.6,0,1.1,0.5,1.1,1.1S51.3,35.1,50.7,35.1z"
				/>
		</g>
		<g>
			<path class="st4" d="M50.7,40.5H35.4c-0.6,0-1.1-0.5-1.1-1.1s0.5-1.1,1.1-1.1h15.3c0.6,0,1.1,0.5,1.1,1.1S51.3,40.5,50.7,40.5z"
				/>
		</g>
		<g>
			<path class="st4" d="M50.7,45.9H35.4c-0.6,0-1.1-0.5-1.1-1.1s0.5-1.1,1.1-1.1h15.3c0.6,0,1.1,0.5,1.1,1.1S51.3,45.9,50.7,45.9z"
				/>
		</g>
		<g>
			<path class="st4" d="M50.7,51.3H35.4c-0.6,0-1.1-0.5-1.1-1.1s0.5-1.1,1.1-1.1h15.3c0.6,0,1.1,0.5,1.1,1.1S51.3,51.3,50.7,51.3z"
				/>
		</g>
		<rect x="29.5" y="24.3" class="st4" width="1.1" height="32.8"/>
	</g>
</g>
</svg>
