<?xml version="1.0" encoding="utf-8"?>
<!-- Generator: Adobe Illustrator 25.2.0, SVG Export Plug-In . SVG Version: 6.00 Build 0)  -->
<svg version="1.1" id="Layer_1" xmlns="http://www.w3.org/2000/svg" xmlns:xlink="http://www.w3.org/1999/xlink" x="0px" y="0px"
	 viewBox="0 0 60 60" style="enable-background:new 0 0 60 60;" xml:space="preserve">
<style type="text/css">
	.st0{fill:#0B1019;}
	.st1{fill:#F15A29;}
	.st2{fill:#F15A2B;}
</style>
<g id="Events">
	<g>
		<rect x="1.7" y="18.2" class="st0" width="56.8" height="1.5"/>
		<path class="st0" d="M21.2,13.1c-1.6,0-2.9-1.3-2.9-2.9V5.1c0-1.6,1.3-2.9,2.9-2.9s2.9,1.3,2.9,2.9v5.2
			C24.1,11.8,22.8,13.1,21.2,13.1z M21.2,3.6c-0.8,0-1.4,0.6-1.4,1.4v5.2c0,0.8,0.6,1.4,1.4,1.4s1.4-0.6,1.4-1.4V5.1
			C22.6,4.3,22,3.6,21.2,3.6z"/>
		<g>
			<rect x="23.4" y="6.6" class="st0" width="13.6" height="1.5"/>
			<path class="st0" d="M55.5,6.6H41.3v1.5h14.3c1.2,0,2.2,1,2.2,2.2v44c0,1.2-1,2.2-2.2,2.2H4.8c-1.2,0-2.2-1-2.2-2.2v-44
				c0-1.2,1-2.2,2.2-2.2H19V6.6H4.8C2.7,6.6,1,8.2,1,10.3v44c0,2,1.7,3.7,3.8,3.7h50.8c2.1,0,3.7-1.7,3.7-3.7v-44
				C59.3,8.2,57.6,6.6,55.5,6.6z"/>
		</g>
		<path class="st0" d="M39.1,13.1c-1.6,0-2.9-1.3-2.9-2.9V5.1c0-1.6,1.3-2.9,2.9-2.9c1.6,0,2.9,1.3,2.9,2.9v5.2
			C42,11.8,40.7,13.1,39.1,13.1z M39.1,3.6c-0.8,0-1.4,0.6-1.4,1.4v5.2c0,0.8,0.6,1.4,1.4,1.4s1.4-0.6,1.4-1.4V5.1
			C40.5,4.3,39.9,3.6,39.1,3.6z"/>
		<g>
			<g>
				<path class="st1" d="M12.1,30.3H9.8c-1.1,0-2-0.9-2-2v-1.7c0-1.1,0.9-2,2-2h2.3c1.1,0,2,0.9,2,2v1.7
					C14.1,29.4,13.2,30.3,12.1,30.3z"/>
				<path class="st2" d="M13.1,31.1H8.8c-1,0-1.7-0.8-1.7-1.7v-3.7c0-1,0.8-1.7,1.7-1.7h4.4c1,0,1.7,0.8,1.7,1.7v3.7
					C14.9,30.3,14.1,31.1,13.1,31.1z M8.8,25.4c-0.1,0-0.2,0.1-0.2,0.2v3.7c0,0.1,0.1,0.2,0.2,0.2h4.4c0.1,0,0.2-0.1,0.2-0.2v-3.7
					c0-0.1-0.1-0.2-0.2-0.2H8.8z"/>
			</g>
			<path class="st0" d="M22.7,30.8h-4.4c-0.8,0-1.5-0.7-1.5-1.5v-3.7c0-0.8,0.7-1.5,1.5-1.5h4.4c0.8,0,1.5,0.7,1.5,1.5v3.7
				C24.2,30.2,23.6,30.8,22.7,30.8z M18.4,25.1c-0.3,0-0.5,0.2-0.5,0.5v3.7c0,0.3,0.2,0.5,0.5,0.5h4.4c0.3,0,0.5-0.2,0.5-0.5v-3.7
				c0-0.3-0.2-0.5-0.5-0.5H18.4z"/>
			<path class="st0" d="M32.3,30.8H28c-0.8,0-1.5-0.7-1.5-1.5v-3.7c0-0.8,0.7-1.5,1.5-1.5h4.4c0.8,0,1.5,0.7,1.5,1.5v3.7
				C33.8,30.2,33.1,30.8,32.3,30.8z M28,25.1c-0.3,0-0.5,0.2-0.5,0.5v3.7c0,0.3,0.2,0.5,0.5,0.5h4.4c0.3,0,0.5-0.2,0.5-0.5v-3.7
				c0-0.3-0.2-0.5-0.5-0.5H28z"/>
			<path class="st0" d="M41.9,30.8h-4.4c-0.8,0-1.5-0.7-1.5-1.5v-3.7c0-0.8,0.7-1.5,1.5-1.5h4.4c0.8,0,1.5,0.7,1.5,1.5v3.7
				C43.4,30.2,42.7,30.8,41.9,30.8z M37.6,25.1c-0.3,0-0.5,0.2-0.5,0.5v3.7c0,0.3,0.2,0.5,0.5,0.5H42c0.3,0,0.5-0.2,0.5-0.5v-3.7
				c0-0.3-0.2-0.5-0.5-0.5H37.6z"/>
			<path class="st0" d="M51.5,30.8h-4.4c-0.8,0-1.5-0.7-1.5-1.5v-3.7c0-0.8,0.7-1.5,1.5-1.5h4.4c0.8,0,1.5,0.7,1.5,1.5v3.7
				C53,30.2,52.3,30.8,51.5,30.8z M47.2,25.1c-0.3,0-0.5,0.2-0.5,0.5v3.7c0,0.3,0.2,0.5,0.5,0.5h4.4c0.3,0,0.5-0.2,0.5-0.5v-3.7
				c0-0.3-0.2-0.5-0.5-0.5H47.2z"/>
		</g>
		<path class="st0" d="M13.1,41H8.8c-0.8,0-1.5-0.7-1.5-1.5v-3.7c0-0.8,0.7-1.5,1.5-1.5h4.4c0.8,0,1.5,0.7,1.5,1.5v3.7
			C14.6,40.3,14,41,13.1,41z M8.8,35.3c-0.3,0-0.5,0.2-0.5,0.5v3.7c0,0.3,0.2,0.5,0.5,0.5h4.4c0.3,0,0.5-0.2,0.5-0.5v-3.7
			c0-0.3-0.2-0.5-0.5-0.5H8.8z"/>
		<path class="st0" d="M22.7,41h-4.4c-0.8,0-1.5-0.7-1.5-1.5v-3.7c0-0.8,0.7-1.5,1.5-1.5h4.4c0.8,0,1.5,0.7,1.5,1.5v3.7
			C24.2,40.3,23.6,41,22.7,41z M18.4,35.3c-0.3,0-0.5,0.2-0.5,0.5v3.7c0,0.3,0.2,0.5,0.5,0.5h4.4c0.3,0,0.5-0.2,0.5-0.5v-3.7
			c0-0.3-0.2-0.5-0.5-0.5H18.4z"/>
		<path class="st0" d="M32.3,41H28c-0.8,0-1.5-0.7-1.5-1.5v-3.7c0-0.8,0.7-1.5,1.5-1.5h4.4c0.8,0,1.5,0.7,1.5,1.5v3.7
			C33.8,40.3,33.1,41,32.3,41z M28,35.3c-0.3,0-0.5,0.2-0.5,0.5v3.7c0,0.3,0.2,0.5,0.5,0.5h4.4c0.3,0,0.5-0.2,0.5-0.5v-3.7
			c0-0.3-0.2-0.5-0.5-0.5H28z"/>
		<g>
			<path class="st1" d="M40.9,40.5h-2.3c-1.1,0-2-0.9-2-2v-1.7c0-1.1,0.9-2,2-2h2.3c1.1,0,2,0.9,2,2v1.7
				C42.9,39.6,42,40.5,40.9,40.5z"/>
			<path class="st2" d="M41.9,41.2h-4.4c-1,0-1.7-0.8-1.7-1.7v-3.7c0-1,0.8-1.7,1.7-1.7h4.4c1,0,1.7,0.8,1.7,1.7v3.7
				C43.7,40.4,42.9,41.2,41.9,41.2z M37.6,35.5c-0.1,0-0.2,0.1-0.2,0.2v3.7c0,0.1,0.1,0.2,0.2,0.2H42c0.1,0,0.2-0.1,0.2-0.2v-3.7
				c0-0.1-0.1-0.2-0.2-0.2H37.6z"/>
		</g>
		<path class="st0" d="M51.5,41h-4.4c-0.8,0-1.5-0.7-1.5-1.5v-3.7c0-0.8,0.7-1.5,1.5-1.5h4.4c0.8,0,1.5,0.7,1.5,1.5v3.7
			C53,40.3,52.3,41,51.5,41z M47.2,35.3c-0.3,0-0.5,0.2-0.5,0.5v3.7c0,0.3,0.2,0.5,0.5,0.5h4.4c0.3,0,0.5-0.2,0.5-0.5v-3.7
			c0-0.3-0.2-0.5-0.5-0.5H47.2z"/>
		<g>
			<path class="st0" d="M13.1,51.6H8.8c-0.8,0-1.5-0.7-1.5-1.5v-3.7c0-0.8,0.7-1.5,1.5-1.5h4.4c0.8,0,1.5,0.7,1.5,1.5v3.7
				C14.6,50.9,14,51.6,13.1,51.6z M8.8,45.9c-0.3,0-0.5,0.2-0.5,0.5v3.7c0,0.3,0.2,0.5,0.5,0.5h4.4c0.3,0,0.5-0.2,0.5-0.5v-3.7
				c0-0.3-0.2-0.5-0.5-0.5H8.8z"/>
			<path class="st0" d="M22.7,51.6h-4.4c-0.8,0-1.5-0.7-1.5-1.5v-3.7c0-0.8,0.7-1.5,1.5-1.5h4.4c0.8,0,1.5,0.7,1.5,1.5v3.7
				C24.2,50.9,23.6,51.6,22.7,51.6z M18.4,45.9c-0.3,0-0.5,0.2-0.5,0.5v3.7c0,0.3,0.2,0.5,0.5,0.5h4.4c0.3,0,0.5-0.2,0.5-0.5v-3.7
				c0-0.3-0.2-0.5-0.5-0.5H18.4z"/>
			<path class="st0" d="M32.3,51.6H28c-0.8,0-1.5-0.7-1.5-1.5v-3.7c0-0.8,0.7-1.5,1.5-1.5h4.4c0.8,0,1.5,0.7,1.5,1.5v3.7
				C33.8,50.9,33.1,51.6,32.3,51.6z M28,45.9c-0.3,0-0.5,0.2-0.5,0.5v3.7c0,0.3,0.2,0.5,0.5,0.5h4.4c0.3,0,0.5-0.2,0.5-0.5v-3.7
				c0-0.3-0.2-0.5-0.5-0.5H28z"/>
			<path class="st0" d="M41.9,51.6h-4.4c-0.8,0-1.5-0.7-1.5-1.5v-3.7c0-0.8,0.7-1.5,1.5-1.5h4.4c0.8,0,1.5,0.7,1.5,1.5v3.7
				C43.4,50.9,42.7,51.6,41.9,51.6z M37.6,45.9c-0.3,0-0.5,0.2-0.5,0.5v3.7c0,0.3,0.2,0.5,0.5,0.5H42c0.3,0,0.5-0.2,0.5-0.5v-3.7
				c0-0.3-0.2-0.5-0.5-0.5H37.6z"/>
			<path class="st0" d="M51.5,51.6h-4.4c-0.8,0-1.5-0.7-1.5-1.5v-3.7c0-0.8,0.7-1.5,1.5-1.5h4.4c0.8,0,1.5,0.7,1.5,1.5v3.7
				C53,50.9,52.3,51.6,51.5,51.6z M47.2,45.9c-0.3,0-0.5,0.2-0.5,0.5v3.7c0,0.3,0.2,0.5,0.5,0.5h4.4c0.3,0,0.5-0.2,0.5-0.5v-3.7
				c0-0.3-0.2-0.5-0.5-0.5H47.2z"/>
		</g>
	</g>
</g>
</svg>
