<svg xmlns="http://www.w3.org/2000/svg" xmlns:xlink="http://www.w3.org/1999/xlink" width="1920" height="528" viewBox="0 0 1920 528"><defs><clipPath id="a"><rect width="1920" height="489" fill="none"/></clipPath><clipPath id="b"><rect width="1880" height="528" fill="none"/></clipPath></defs><g transform="translate(-0.5 -0.5)"><g transform="translate(0.5 39.5)" clip-path="url(#a)"><g transform="translate(-0.5 -39.5)"><line x2="1366" transform="translate(0.5 40)" fill="none" stroke="#fff6e9" stroke-width="1"/><line x2="1366" transform="translate(0.5 80)" fill="none" stroke="#fff6e9" stroke-width="1"/></g><g transform="translate(1365.5 -39.5)"><line x2="1366" transform="translate(0.5 40)" fill="none" stroke="#fff6e9" stroke-width="1"/><line x2="1366" transform="translate(0.5 80)" fill="none" stroke="#fff6e9" stroke-width="1"/></g><g transform="translate(-0.5 21.5)"><line x2="1366" transform="translate(0.5 40)" fill="none" stroke="#fff6e9" stroke-width="1"/><line x2="1366" transform="translate(0.5 80)" fill="none" stroke="#fff6e9" stroke-width="1"/></g><g transform="translate(1365.5 21.5)"><line x2="1366" transform="translate(0.5 40)" fill="none" stroke="#fff6e9" stroke-width="1"/><line x2="1366" transform="translate(0.5 80)" fill="none" stroke="#fff6e9" stroke-width="1"/></g><g transform="translate(-0.5 82.5)"><line x2="1366" transform="translate(0.5 40)" fill="none" stroke="#fff6e9" stroke-width="1"/><line x2="1366" transform="translate(0.5 80)" fill="none" stroke="#fff6e9" stroke-width="1"/></g><g transform="translate(1365.5 82.5)"><line x2="1366" transform="translate(0.5 40)" fill="none" stroke="#fff6e9" stroke-width="1"/><line x2="1366" transform="translate(0.5 80)" fill="none" stroke="#fff6e9" stroke-width="1"/></g><g transform="translate(-0.5 143.5)"><line x2="1366" transform="translate(0.5 40)" fill="none" stroke="#fff6e9" stroke-width="1"/><line x2="1366" transform="translate(0.5 80)" fill="none" stroke="#fff6e9" stroke-width="1"/></g><g transform="translate(1365.5 143.5)"><line x2="1366" transform="translate(0.5 40)" fill="none" stroke="#fff6e9" stroke-width="1"/><line x2="1366" transform="translate(0.5 80)" fill="none" stroke="#fff6e9" stroke-width="1"/></g><g transform="translate(-0.5 204.5)"><line x2="1366" transform="translate(0.5 40)" fill="none" stroke="#fff6e9" stroke-width="1"/><line x2="1366" transform="translate(0.5 80)" fill="none" stroke="#fff6e9" stroke-width="1"/></g><g transform="translate(1365.5 204.5)"><line x2="1366" transform="translate(0.5 40)" fill="none" stroke="#fff6e9" stroke-width="1"/><line x2="1366" transform="translate(0.5 80)" fill="none" stroke="#fff6e9" stroke-width="1"/></g><g transform="translate(-0.5 265.5)"><line x2="1366" transform="translate(0.5 40)" fill="none" stroke="#fff6e9" stroke-width="1"/><line x2="1366" transform="translate(0.5 80)" fill="none" stroke="#fff6e9" stroke-width="1"/></g><g transform="translate(1365.5 265.5)"><line x2="1366" transform="translate(0.5 40)" fill="none" stroke="#fff6e9" stroke-width="1"/><line x2="1366" transform="translate(0.5 80)" fill="none" stroke="#fff6e9" stroke-width="1"/></g><g transform="translate(-0.5 326.5)"><line x2="1366" transform="translate(0.5 40)" fill="none" stroke="#fff6e9" stroke-width="1"/><line x2="1366" transform="translate(0.5 80)" fill="none" stroke="#fff6e9" stroke-width="1"/></g><g transform="translate(1365.5 326.5)"><line x2="1366" transform="translate(0.5 40)" fill="none" stroke="#fff6e9" stroke-width="1"/><line x2="1366" transform="translate(0.5 80)" fill="none" stroke="#fff6e9" stroke-width="1"/></g><g transform="translate(-0.5 387.5)"><line x2="1366" transform="translate(0.5 40)" fill="none" stroke="#fff6e9" stroke-width="1"/><line x2="1366" transform="translate(0.5 80)" fill="none" stroke="#fff6e9" stroke-width="1"/></g><g transform="translate(1365.5 387.5)"><line x2="1366" transform="translate(0.5 40)" fill="none" stroke="#fff6e9" stroke-width="1"/><line x2="1366" transform="translate(0.5 80)" fill="none" stroke="#fff6e9" stroke-width="1"/></g><g transform="translate(-0.5 448.5)"><line x2="1366" transform="translate(0.5 40)" fill="none" stroke="#fff6e9" stroke-width="1"/><line x2="1366" transform="translate(0.5 80)" fill="none" stroke="#fff6e9" stroke-width="1"/></g><g transform="translate(1365.5 448.5)"><line x2="1366" transform="translate(0.5 40)" fill="none" stroke="#fff6e9" stroke-width="1"/><line x2="1366" transform="translate(0.5 80)" fill="none" stroke="#fff6e9" stroke-width="1"/></g></g><g transform="translate(40 0.5)" clip-path="url(#b)"><g transform="translate(-40 -0.5)"><line y2="528" transform="translate(40.5 0.5)" fill="none" stroke="#fff6e9" stroke-width="1"/><line y2="528" transform="translate(80.5 0.5)" fill="none" stroke="#fff6e9" stroke-width="1"/></g><g transform="translate(21 -0.5)"><line y2="528" transform="translate(40.5 0.5)" fill="none" stroke="#fff6e9" stroke-width="1"/><line y2="528" transform="translate(80.5 0.5)" fill="none" stroke="#fff6e9" stroke-width="1"/></g><g transform="translate(82 -0.5)"><line y2="528" transform="translate(40.5 0.5)" fill="none" stroke="#fff6e9" stroke-width="1"/><line y2="528" transform="translate(80.5 0.5)" fill="none" stroke="#fff6e9" stroke-width="1"/></g><g transform="translate(143 -0.5)"><line y2="528" transform="translate(40.5 0.5)" fill="none" stroke="#fff6e9" stroke-width="1"/><line y2="528" transform="translate(80.5 0.5)" fill="none" stroke="#fff6e9" stroke-width="1"/></g><g transform="translate(204 -0.5)"><line y2="528" transform="translate(40.5 0.5)" fill="none" stroke="#fff6e9" stroke-width="1"/><line y2="528" transform="translate(80.5 0.5)" fill="none" stroke="#fff6e9" stroke-width="1"/></g><g transform="translate(265 -0.5)"><line y2="528" transform="translate(40.5 0.5)" fill="none" stroke="#fff6e9" stroke-width="1"/><line y2="528" transform="translate(80.5 0.5)" fill="none" stroke="#fff6e9" stroke-width="1"/></g><g transform="translate(326 -0.5)"><line y2="528" transform="translate(40.5 0.5)" fill="none" stroke="#fff6e9" stroke-width="1"/><line y2="528" transform="translate(80.5 0.5)" fill="none" stroke="#fff6e9" stroke-width="1"/></g><g transform="translate(387 -0.5)"><line y2="528" transform="translate(40.5 0.5)" fill="none" stroke="#fff6e9" stroke-width="1"/><line y2="528" transform="translate(80.5 0.5)" fill="none" stroke="#fff6e9" stroke-width="1"/></g><g transform="translate(448 -0.5)"><line y2="528" transform="translate(40.5 0.5)" fill="none" stroke="#fff6e9" stroke-width="1"/><line y2="528" transform="translate(80.5 0.5)" fill="none" stroke="#fff6e9" stroke-width="1"/></g><g transform="translate(509 -0.5)"><line y2="528" transform="translate(40.5 0.5)" fill="none" stroke="#fff6e9" stroke-width="1"/><line y2="528" transform="translate(80.5 0.5)" fill="none" stroke="#fff6e9" stroke-width="1"/></g><g transform="translate(570 -0.5)"><line y2="528" transform="translate(40.5 0.5)" fill="none" stroke="#fff6e9" stroke-width="1"/><line y2="528" transform="translate(80.5 0.5)" fill="none" stroke="#fff6e9" stroke-width="1"/></g><g transform="translate(631 -0.5)"><line y2="528" transform="translate(40.5 0.5)" fill="none" stroke="#fff6e9" stroke-width="1"/><line y2="528" transform="translate(80.5 0.5)" fill="none" stroke="#fff6e9" stroke-width="1"/></g><g transform="translate(692 -0.5)"><line y2="528" transform="translate(40.5 0.5)" fill="none" stroke="#fff6e9" stroke-width="1"/><line y2="528" transform="translate(80.5 0.5)" fill="none" stroke="#fff6e9" stroke-width="1"/></g><g transform="translate(753 -0.5)"><line y2="528" transform="translate(40.5 0.5)" fill="none" stroke="#fff6e9" stroke-width="1"/><line y2="528" transform="translate(80.5 0.5)" fill="none" stroke="#fff6e9" stroke-width="1"/></g><g transform="translate(814 -0.5)"><line y2="528" transform="translate(40.5 0.5)" fill="none" stroke="#fff6e9" stroke-width="1"/><line y2="528" transform="translate(80.5 0.5)" fill="none" stroke="#fff6e9" stroke-width="1"/></g><g transform="translate(875 -0.5)"><line y2="528" transform="translate(40.5 0.5)" fill="none" stroke="#fff6e9" stroke-width="1"/><line y2="528" transform="translate(80.5 0.5)" fill="none" stroke="#fff6e9" stroke-width="1"/></g><g transform="translate(936 -0.5)"><line y2="528" transform="translate(40.5 0.5)" fill="none" stroke="#fff6e9" stroke-width="1"/><line y2="528" transform="translate(80.5 0.5)" fill="none" stroke="#fff6e9" stroke-width="1"/></g><g transform="translate(997 -0.5)"><line y2="528" transform="translate(40.5 0.5)" fill="none" stroke="#fff6e9" stroke-width="1"/><line y2="528" transform="translate(80.5 0.5)" fill="none" stroke="#fff6e9" stroke-width="1"/></g><g transform="translate(1058 -0.5)"><line y2="528" transform="translate(40.5 0.5)" fill="none" stroke="#fff6e9" stroke-width="1"/><line y2="528" transform="translate(80.5 0.5)" fill="none" stroke="#fff6e9" stroke-width="1"/></g><g transform="translate(1119 -0.5)"><line y2="528" transform="translate(40.5 0.5)" fill="none" stroke="#fff6e9" stroke-width="1"/><line y2="528" transform="translate(80.5 0.5)" fill="none" stroke="#fff6e9" stroke-width="1"/></g><g transform="translate(1180 -0.5)"><line y2="528" transform="translate(40.5 0.5)" fill="none" stroke="#fff6e9" stroke-width="1"/><line y2="528" transform="translate(80.5 0.5)" fill="none" stroke="#fff6e9" stroke-width="1"/></g><g transform="translate(1241 -0.5)"><line y2="528" transform="translate(40.5 0.5)" fill="none" stroke="#fff6e9" stroke-width="1"/><line y2="528" transform="translate(80.5 0.5)" fill="none" stroke="#fff6e9" stroke-width="1"/></g><g transform="translate(1302 -0.5)"><line y2="528" transform="translate(40.5 0.5)" fill="none" stroke="#fff6e9" stroke-width="1"/><line y2="528" transform="translate(80.5 0.5)" fill="none" stroke="#fff6e9" stroke-width="1"/></g><g transform="translate(1363 -0.5)"><line y2="528" transform="translate(40.5 0.5)" fill="none" stroke="#fff6e9" stroke-width="1"/><line y2="528" transform="translate(80.5 0.5)" fill="none" stroke="#fff6e9" stroke-width="1"/></g><g transform="translate(1424 -0.5)"><line y2="528" transform="translate(40.5 0.5)" fill="none" stroke="#fff6e9" stroke-width="1"/><line y2="528" transform="translate(80.5 0.5)" fill="none" stroke="#fff6e9" stroke-width="1"/></g><g transform="translate(1485 -0.5)"><line y2="528" transform="translate(40.5 0.5)" fill="none" stroke="#fff6e9" stroke-width="1"/><line y2="528" transform="translate(80.5 0.5)" fill="none" stroke="#fff6e9" stroke-width="1"/></g><g transform="translate(1546 -0.5)"><line y2="528" transform="translate(40.5 0.5)" fill="none" stroke="#fff6e9" stroke-width="1"/><line y2="528" transform="translate(80.5 0.5)" fill="none" stroke="#fff6e9" stroke-width="1"/></g><g transform="translate(1607 -0.5)"><line y2="528" transform="translate(40.5 0.5)" fill="none" stroke="#fff6e9" stroke-width="1"/><line y2="528" transform="translate(80.5 0.5)" fill="none" stroke="#fff6e9" stroke-width="1"/></g><g transform="translate(1668 -0.5)"><line y2="528" transform="translate(40.5 0.5)" fill="none" stroke="#fff6e9" stroke-width="1"/><line y2="528" transform="translate(80.5 0.5)" fill="none" stroke="#fff6e9" stroke-width="1"/></g><g transform="translate(1729 -0.5)"><line y2="528" transform="translate(40.5 0.5)" fill="none" stroke="#fff6e9" stroke-width="1"/><line y2="528" transform="translate(80.5 0.5)" fill="none" stroke="#fff6e9" stroke-width="1"/></g><g transform="translate(1790 -0.5)"><line y2="528" transform="translate(40.5 0.5)" fill="none" stroke="#fff6e9" stroke-width="1"/><line y2="528" transform="translate(80.5 0.5)" fill="none" stroke="#fff6e9" stroke-width="1"/></g></g></g></svg>