<svg xmlns="http://www.w3.org/2000/svg" xmlns:xlink="http://www.w3.org/1999/xlink" width="1920.5" height="528" viewBox="0 0 1920.5 528"><defs><clipPath id="a"><rect width="1920" height="489" fill="none"/></clipPath><clipPath id="b"><rect width="1881" height="528" fill="none"/></clipPath></defs><g transform="translate(-0.5 -0.5)"><g transform="translate(0.5 39.5)" clip-path="url(#a)"><g transform="translate(-0.5 -39.5)"><line x2="1366" transform="translate(0.5 40)" fill="none" stroke="#fff6e9" stroke-width="1"/><line x2="1366" transform="translate(0.5 80)" fill="none" stroke="#fff6e9" stroke-width="1"/></g><g transform="translate(1385.5 -39.5)"><line x2="1366" transform="translate(0.5 40)" fill="none" stroke="#fff6e9" stroke-width="1"/><line x2="1366" transform="translate(0.5 80)" fill="none" stroke="#fff6e9" stroke-width="1"/></g><g transform="translate(-0.5 106.5)"><line x2="1366" transform="translate(0.5 40)" fill="none" stroke="#fff6e9" stroke-width="1"/><line x2="1366" transform="translate(0.5 80)" fill="none" stroke="#fff6e9" stroke-width="1"/></g><g transform="translate(1385.5 106.5)"><line x2="1366" transform="translate(0.5 40)" fill="none" stroke="#fff6e9" stroke-width="1"/><line x2="1366" transform="translate(0.5 80)" fill="none" stroke="#fff6e9" stroke-width="1"/></g><g transform="translate(-0.5 252.5)"><line x2="1366" transform="translate(0.5 40)" fill="none" stroke="#fff6e9" stroke-width="1"/><line x2="1366" transform="translate(0.5 80)" fill="none" stroke="#fff6e9" stroke-width="1"/></g><g transform="translate(1385.5 252.5)"><line x2="1366" transform="translate(0.5 40)" fill="none" stroke="#fff6e9" stroke-width="1"/><line x2="1366" transform="translate(0.5 80)" fill="none" stroke="#fff6e9" stroke-width="1"/></g><g transform="translate(-0.5 398.5)"><line x2="1366" transform="translate(0.5 40)" fill="none" stroke="#fff6e9" stroke-width="1"/><line x2="1366" transform="translate(0.5 80)" fill="none" stroke="#fff6e9" stroke-width="1"/></g><g transform="translate(1385.5 398.5)"><line x2="1366" transform="translate(0.5 40)" fill="none" stroke="#fff6e9" stroke-width="1"/><line x2="1366" transform="translate(0.5 80)" fill="none" stroke="#fff6e9" stroke-width="1"/></g></g><g transform="translate(40 0.5)" clip-path="url(#b)"><g transform="translate(-40 -0.5)"><line y2="528" transform="translate(40.5 0.5)" fill="none" stroke="#fff6e9" stroke-width="1"/><line y2="528" transform="translate(80.5 0.5)" fill="none" stroke="#fff6e9" stroke-width="1"/></g><g transform="translate(153 -0.5)"><line y2="528" transform="translate(40.5 0.5)" fill="none" stroke="#fff6e9" stroke-width="1"/><line y2="528" transform="translate(80.5 0.5)" fill="none" stroke="#fff6e9" stroke-width="1"/></g><g transform="translate(346 -0.5)"><line y2="528" transform="translate(40.5 0.5)" fill="none" stroke="#fff6e9" stroke-width="1"/><line y2="528" transform="translate(80.5 0.5)" fill="none" stroke="#fff6e9" stroke-width="1"/></g><g transform="translate(539 -0.5)"><line y2="528" transform="translate(40.5 0.5)" fill="none" stroke="#fff6e9" stroke-width="1"/><line y2="528" transform="translate(80.5 0.5)" fill="none" stroke="#fff6e9" stroke-width="1"/></g><g transform="translate(732 -0.5)"><line y2="528" transform="translate(40.5 0.5)" fill="none" stroke="#fff6e9" stroke-width="1"/><line y2="528" transform="translate(80.5 0.5)" fill="none" stroke="#fff6e9" stroke-width="1"/></g><g transform="translate(925 -0.5)"><line y2="528" transform="translate(40.5 0.5)" fill="none" stroke="#fff6e9" stroke-width="1"/><line y2="528" transform="translate(80.5 0.5)" fill="none" stroke="#fff6e9" stroke-width="1"/></g><g transform="translate(1118 -0.5)"><line y2="528" transform="translate(40.5 0.5)" fill="none" stroke="#fff6e9" stroke-width="1"/><line y2="528" transform="translate(80.5 0.5)" fill="none" stroke="#fff6e9" stroke-width="1"/></g><g transform="translate(1311 -0.5)"><line y2="528" transform="translate(40.5 0.5)" fill="none" stroke="#fff6e9" stroke-width="1"/><line y2="528" transform="translate(80.5 0.5)" fill="none" stroke="#fff6e9" stroke-width="1"/></g><g transform="translate(1504 -0.5)"><line y2="528" transform="translate(40.5 0.5)" fill="none" stroke="#fff6e9" stroke-width="1"/><line y2="528" transform="translate(80.5 0.5)" fill="none" stroke="#fff6e9" stroke-width="1"/></g><g transform="translate(1697 -0.5)"><line y2="528" transform="translate(40.5 0.5)" fill="none" stroke="#fff6e9" stroke-width="1"/><line y2="528" transform="translate(80.5 0.5)" fill="none" stroke="#fff6e9" stroke-width="1"/></g></g></g></svg>