<svg xmlns="http://www.w3.org/2000/svg" xmlns:xlink="http://www.w3.org/1999/xlink" width="1920" height="528" viewBox="0 0 1920 528"><defs><clipPath id="a"><rect width="1920" height="489" fill="none"/></clipPath><clipPath id="b"><rect width="1880" height="528" fill="none"/></clipPath></defs><g transform="translate(0 -0.5)"><g transform="translate(0 39.5)" clip-path="url(#a)"><g transform="translate(-0.5 -39.5)"><line x2="1366" transform="translate(0.5 40)" fill="none" stroke="#fff6e9" stroke-width="1"/><line x2="1366" transform="translate(0.5 80)" fill="none" stroke="#fff6e9" stroke-width="1"/></g><g transform="translate(1365.5 -39.5)"><line x2="1366" transform="translate(0.5 40)" fill="none" stroke="#fff6e9" stroke-width="1"/><line x2="1366" transform="translate(0.5 80)" fill="none" stroke="#fff6e9" stroke-width="1"/></g><g transform="translate(-0.5 29.5)"><line x2="1366" transform="translate(0.5 40)" fill="none" stroke="#fff6e9" stroke-width="1"/><line x2="1366" transform="translate(0.5 80)" fill="none" stroke="#fff6e9" stroke-width="1"/></g><g transform="translate(1365.5 29.5)"><line x2="1366" transform="translate(0.5 40)" fill="none" stroke="#fff6e9" stroke-width="1"/><line x2="1366" transform="translate(0.5 80)" fill="none" stroke="#fff6e9" stroke-width="1"/></g><g transform="translate(-0.5 98.5)"><line x2="1366" transform="translate(0.5 40)" fill="none" stroke="#fff6e9" stroke-width="1"/><line x2="1366" transform="translate(0.5 80)" fill="none" stroke="#fff6e9" stroke-width="1"/></g><g transform="translate(1365.5 98.5)"><line x2="1366" transform="translate(0.5 40)" fill="none" stroke="#fff6e9" stroke-width="1"/><line x2="1366" transform="translate(0.5 80)" fill="none" stroke="#fff6e9" stroke-width="1"/></g><g transform="translate(-0.5 167.5)"><line x2="1366" transform="translate(0.5 40)" fill="none" stroke="#fff6e9" stroke-width="1"/><line x2="1366" transform="translate(0.5 80)" fill="none" stroke="#fff6e9" stroke-width="1"/></g><g transform="translate(1365.5 167.5)"><line x2="1366" transform="translate(0.5 40)" fill="none" stroke="#fff6e9" stroke-width="1"/><line x2="1366" transform="translate(0.5 80)" fill="none" stroke="#fff6e9" stroke-width="1"/></g><g transform="translate(-0.5 236.5)"><line x2="1366" transform="translate(0.5 40)" fill="none" stroke="#fff6e9" stroke-width="1"/><line x2="1366" transform="translate(0.5 80)" fill="none" stroke="#fff6e9" stroke-width="1"/></g><g transform="translate(1365.5 236.5)"><line x2="1366" transform="translate(0.5 40)" fill="none" stroke="#fff6e9" stroke-width="1"/><line x2="1366" transform="translate(0.5 80)" fill="none" stroke="#fff6e9" stroke-width="1"/></g><g transform="translate(-0.5 305.5)"><line x2="1366" transform="translate(0.5 40)" fill="none" stroke="#fff6e9" stroke-width="1"/><line x2="1366" transform="translate(0.5 80)" fill="none" stroke="#fff6e9" stroke-width="1"/></g><g transform="translate(1365.5 305.5)"><line x2="1366" transform="translate(0.5 40)" fill="none" stroke="#fff6e9" stroke-width="1"/><line x2="1366" transform="translate(0.5 80)" fill="none" stroke="#fff6e9" stroke-width="1"/></g><g transform="translate(-0.5 374.5)"><line x2="1366" transform="translate(0.5 40)" fill="none" stroke="#fff6e9" stroke-width="1"/><line x2="1366" transform="translate(0.5 80)" fill="none" stroke="#fff6e9" stroke-width="1"/></g><g transform="translate(1365.5 374.5)"><line x2="1366" transform="translate(0.5 40)" fill="none" stroke="#fff6e9" stroke-width="1"/><line x2="1366" transform="translate(0.5 80)" fill="none" stroke="#fff6e9" stroke-width="1"/></g><g transform="translate(-0.5 443.5)"><line x2="1366" transform="translate(0.5 40)" fill="none" stroke="#fff6e9" stroke-width="1"/><line x2="1366" transform="translate(0.5 80)" fill="none" stroke="#fff6e9" stroke-width="1"/></g><g transform="translate(1365.5 443.5)"><line x2="1366" transform="translate(0.5 40)" fill="none" stroke="#fff6e9" stroke-width="1"/><line x2="1366" transform="translate(0.5 80)" fill="none" stroke="#fff6e9" stroke-width="1"/></g></g><g transform="translate(40 0.5)" clip-path="url(#b)"><g transform="translate(-40 -0.5)"><line y2="528" transform="translate(40.5 0.5)" fill="none" stroke="#fff6e9" stroke-width="1"/><line y2="528" transform="translate(80.5 0.5)" fill="none" stroke="#fff6e9" stroke-width="1"/></g><g transform="translate(50 -0.5)"><line y2="528" transform="translate(40.5 0.5)" fill="none" stroke="#fff6e9" stroke-width="1"/><line y2="528" transform="translate(80.5 0.5)" fill="none" stroke="#fff6e9" stroke-width="1"/></g><g transform="translate(140 -0.5)"><line y2="528" transform="translate(40.5 0.5)" fill="none" stroke="#fff6e9" stroke-width="1"/><line y2="528" transform="translate(80.5 0.5)" fill="none" stroke="#fff6e9" stroke-width="1"/></g><g transform="translate(230 -0.5)"><line y2="528" transform="translate(40.5 0.5)" fill="none" stroke="#fff6e9" stroke-width="1"/><line y2="528" transform="translate(80.5 0.5)" fill="none" stroke="#fff6e9" stroke-width="1"/></g><g transform="translate(320 -0.5)"><line y2="528" transform="translate(40.5 0.5)" fill="none" stroke="#fff6e9" stroke-width="1"/><line y2="528" transform="translate(80.5 0.5)" fill="none" stroke="#fff6e9" stroke-width="1"/></g><g transform="translate(410 -0.5)"><line y2="528" transform="translate(40.5 0.5)" fill="none" stroke="#fff6e9" stroke-width="1"/><line y2="528" transform="translate(80.5 0.5)" fill="none" stroke="#fff6e9" stroke-width="1"/></g><g transform="translate(500 -0.5)"><line y2="528" transform="translate(40.5 0.5)" fill="none" stroke="#fff6e9" stroke-width="1"/><line y2="528" transform="translate(80.5 0.5)" fill="none" stroke="#fff6e9" stroke-width="1"/></g><g transform="translate(590 -0.5)"><line y2="528" transform="translate(40.5 0.5)" fill="none" stroke="#fff6e9" stroke-width="1"/><line y2="528" transform="translate(80.5 0.5)" fill="none" stroke="#fff6e9" stroke-width="1"/></g><g transform="translate(680 -0.5)"><line y2="528" transform="translate(40.5 0.5)" fill="none" stroke="#fff6e9" stroke-width="1"/><line y2="528" transform="translate(80.5 0.5)" fill="none" stroke="#fff6e9" stroke-width="1"/></g><g transform="translate(770 -0.5)"><line y2="528" transform="translate(40.5 0.5)" fill="none" stroke="#fff6e9" stroke-width="1"/><line y2="528" transform="translate(80.5 0.5)" fill="none" stroke="#fff6e9" stroke-width="1"/></g><g transform="translate(860 -0.5)"><line y2="528" transform="translate(40.5 0.5)" fill="none" stroke="#fff6e9" stroke-width="1"/><line y2="528" transform="translate(80.5 0.5)" fill="none" stroke="#fff6e9" stroke-width="1"/></g><g transform="translate(950 -0.5)"><line y2="528" transform="translate(40.5 0.5)" fill="none" stroke="#fff6e9" stroke-width="1"/><line y2="528" transform="translate(80.5 0.5)" fill="none" stroke="#fff6e9" stroke-width="1"/></g><g transform="translate(1040 -0.5)"><line y2="528" transform="translate(40.5 0.5)" fill="none" stroke="#fff6e9" stroke-width="1"/><line y2="528" transform="translate(80.5 0.5)" fill="none" stroke="#fff6e9" stroke-width="1"/></g><g transform="translate(1130 -0.5)"><line y2="528" transform="translate(40.5 0.5)" fill="none" stroke="#fff6e9" stroke-width="1"/><line y2="528" transform="translate(80.5 0.5)" fill="none" stroke="#fff6e9" stroke-width="1"/></g><g transform="translate(1220 -0.5)"><line y2="528" transform="translate(40.5 0.5)" fill="none" stroke="#fff6e9" stroke-width="1"/><line y2="528" transform="translate(80.5 0.5)" fill="none" stroke="#fff6e9" stroke-width="1"/></g><g transform="translate(1310 -0.5)"><line y2="528" transform="translate(40.5 0.5)" fill="none" stroke="#fff6e9" stroke-width="1"/><line y2="528" transform="translate(80.5 0.5)" fill="none" stroke="#fff6e9" stroke-width="1"/></g><g transform="translate(1400 -0.5)"><line y2="528" transform="translate(40.5 0.5)" fill="none" stroke="#fff6e9" stroke-width="1"/><line y2="528" transform="translate(80.5 0.5)" fill="none" stroke="#fff6e9" stroke-width="1"/></g><g transform="translate(1490 -0.5)"><line y2="528" transform="translate(40.5 0.5)" fill="none" stroke="#fff6e9" stroke-width="1"/><line y2="528" transform="translate(80.5 0.5)" fill="none" stroke="#fff6e9" stroke-width="1"/></g><g transform="translate(1580 -0.5)"><line y2="528" transform="translate(40.5 0.5)" fill="none" stroke="#fff6e9" stroke-width="1"/><line y2="528" transform="translate(80.5 0.5)" fill="none" stroke="#fff6e9" stroke-width="1"/></g><g transform="translate(1670 -0.5)"><line y2="528" transform="translate(40.5 0.5)" fill="none" stroke="#fff6e9" stroke-width="1"/><line y2="528" transform="translate(80.5 0.5)" fill="none" stroke="#fff6e9" stroke-width="1"/></g><g transform="translate(1760 -0.5)"><line y2="528" transform="translate(40.5 0.5)" fill="none" stroke="#fff6e9" stroke-width="1"/><line y2="528" transform="translate(80.5 0.5)" fill="none" stroke="#fff6e9" stroke-width="1"/></g></g></g></svg>