<?xml version="1.0" encoding="utf-8"?>
<!-- Generator: Adobe Illustrator 25.2.0, SVG Export Plug-In . SVG Version: 6.00 Build 0)  -->
<svg version="1.1" id="Layer_1" xmlns="http://www.w3.org/2000/svg" xmlns:xlink="http://www.w3.org/1999/xlink" x="0px" y="0px"
	 viewBox="0 0 60 60" style="enable-background:new 0 0 60 60;" xml:space="preserve">
<style type="text/css">
	.st0{fill:#F15A29;}
	.st1{fill:#1D1D1B;}
</style>
<g id="Oplen_Source">
	<g>
		<path class="st0" d="M30.9,9.3C18.3,9.3,8.1,19.5,8.1,32H10c0-11.5,9.4-20.8,20.8-20.8V9.3H30.9z"/>
		<path class="st1" d="M59.1,31.1c0-7.7-3-15-8.4-20.5c-5.5-5.5-12.8-8.5-20.5-8.5H30c-7.8,0-15.1,3-20.5,8.5C4,16.1,1,23.4,1,31.1
			v0.1v0.2c0,0.3,0,0.5,0,0.8v0.3c0,0.3,0,0.5,0,0.8v0.2c0.7,9,5.4,17,12.9,22l0.6,0.4l0,0c1.1,0.7,2.3,1.3,3.4,1.9
			c0.3,0.2,0.6,0.2,0.8,0.2c0.2,0,0.4,0,0.7-0.2c0.4-0.2,0.8-0.5,1-0.8l6.3-15c0.1-0.2,0.2-0.4,0.2-0.6v-0.1l0,0
			c0.1-0.6-0.4-0.9-0.7-1.1c-0.1-0.1-0.3-0.2-0.6-0.3c-0.8-0.4-1.6-0.9-2.2-1.6l-0.5-0.6c-1.4-1.5-2.2-3.4-2.4-5.4v-0.1v-0.1
			c0-0.1,0-0.2,0-0.2c0-0.2,0-0.4,0-0.6c0-5.3,4.3-9.7,9.7-9.7s9.7,4.3,9.7,9.7c0,0.2,0,0.4,0,0.6c0,0.1,0,0.2,0,0.2v0.2
			c-0.2,2-1.1,3.9-2.4,5.4l-0.3,0.4c-0.7,0.7-1.5,1.3-2.5,1.8c-0.1,0-0.1,0.1-0.2,0.1l0,0c0,0-1.8,0.4-0.8,2l0,0l6.2,14.9l0,0
			c0.2,0.4,0.5,0.7,1,0.8c0.3,0.1,0.5,0.2,0.7,0.2c0.1,0,0.5,0,0.8-0.2c1.2-0.5,2.3-1.2,3.4-1.9l0,0l0.6-0.4
			c7.5-5,12.2-13.1,12.9-22v-0.2c0-0.3,0-0.5,0-0.8v-0.3c0-0.3,0-0.5,0-0.8L59.1,31.1L59.1,31.1z M57.6,31.4c0,0.3,0,0.5,0,0.8v0.3
			c0,0.2,0,0.5,0,0.7v0.2C56.9,41.6,52.7,49,46,53.8l0,0l-0.6,0.4c-1.3,0.8-2.6,1.6-3.9,2.2h-0.1l0,0l0,0h-0.1
			c-0.1,0-0.1-0.1-0.1-0.1l-6-14.3L35,41.5c0-0.1,0-0.2,0.1-0.2h0.1c1.2-0.6,2.3-1.4,3.2-2.5l0.5-0.6l0,0c1.3-1.6,2.1-3.6,2.3-5.7
			v-0.1c0-0.1,0-0.1,0-0.2c0-0.1,0-0.2,0-0.3c0-0.2,0-0.4,0-0.7C41.2,25,36.2,20,30,20s-11.2,5-11.2,11.2c0,0.2,0,0.4,0,0.7
			c0,0.1,0,0.2,0,0.3s0,0.1,0,0.2v0.1c0.2,2,1,4,2.3,5.7v-0.1l0.5,0.7c0.9,1,2,1.9,3.2,2.5h0.1c0.1,0,0.1,0.1,0.1,0.2l0,0.6
			l-5.9,14.1L19,56.3h-0.1c0,0,0,0-0.1,0l0,0l0,0h-0.1c-1.3-0.6-2.7-1.4-3.9-2.2l-0.6-0.4l0,0C7.5,49,3.2,41.6,2.6,33.3v-0.2
			c0-0.2,0-0.5,0-0.7v-0.3c0-0.3,0-0.5,0-0.8v-0.2V31c0-7.3,2.8-14.2,8-19.4c5.2-5.1,12.1-8,19.4-8l0,0h0.1c7.4,0,14.3,2.9,19.5,8.1
			s8,12.1,8,19.4v0.1V31.4z"/>
	</g>
</g>
</svg>
