<?xml version="1.0" encoding="utf-8"?>
<!-- Generator: Adobe Illustrator 25.3.1, SVG Export Plug-In . SVG Version: 6.00 Build 0)  -->
<svg version="1.1" id="Layer_1" xmlns="http://www.w3.org/2000/svg" xmlns:xlink="http://www.w3.org/1999/xlink" x="0px" y="0px"
	 viewBox="0 0 60 60" style="enable-background:new 0 0 60 60;" xml:space="preserve">
<style type="text/css">
	.st0{fill:#F05A2B;}
	.st1{fill:#010101;}
	.st2{fill:#221F1F;}
</style>
<g>
	
		<rect x="7.2" y="24.4" transform="matrix(0.7071 -0.7071 0.7071 0.7071 -12.7449 19.2052)" class="st0" width="19.3" height="1.1"/>
	
		<rect x="43.3" y="14.6" transform="matrix(0.7071 -0.7071 0.7071 0.7071 -3.7425 37.9254)" class="st0" width="1.1" height="17.7"/>
	<path class="st1" d="M26,53.1c-0.5,0-1-0.1-1.5-0.3c-1.4-0.6-2.2-1.7-2.4-3.1c-1.8-0.2-3.2-1.6-3.4-3.4c-1.9-0.3-3.1-1.5-3.4-3.4
		c-1.5-0.2-2.7-1.2-3.2-2.6c-0.5-1.4-0.2-2.9,0.8-4.1l-2-2c-1.7-1.7-3.4-3.4-5.1-5.1c-0.2-0.2-0.4-0.4-0.6-0.7
		c-0.1-0.1-0.2-0.2-0.2-0.3L4.8,28v-0.9L4.9,27C5,26.9,5,26.8,5.1,26.8c0.1-0.2,0.3-0.4,0.5-0.6c3.4-3.4,6.9-6.9,10.3-10.3l1.5-1.5
		c1-1,1.7-1,2.7,0l1.1,1.1c1,1,2.1,2.1,3.1,3.1c0.1,0.1,0.2,0.2,0.2,0.2c1.7,0.2,3.1,0.8,4.2,1.7c1-0.8,2-1.3,3-1.5
		c0.8-0.2,1.7-0.3,2.6-0.3l0.4,0c0.7-0.1,1.3-0.3,1.9-0.8c1.4-1.3,2.7-2.5,4.1-3.8l0.9-0.9c1-0.9,1.8-0.9,2.7,0l1.6,1.6
		c2.9,2.9,5.8,5.8,8.7,8.7c0.2,0.2,0.3,0.4,0.5,0.6c0.1,0.1,0.1,0.2,0.2,0.2l0.1,0.2v0.9l-0.1,0.2c-0.1,0.1-0.2,0.2-0.2,0.3
		c-0.2,0.2-0.3,0.4-0.6,0.6c-3.3,3.3-6.6,6.6-9.9,9.9c0,0-0.7,0.7-1.2,1.2c1.2,1.3,1.7,2.6,1.4,3.6c-0.2,0.5-0.7,1.5-2.5,1.8
		c-0.5,2.1-1.4,3-3.4,3.4c-0.3,1.9-1.5,3.1-3.4,3.4c-0.2,1.5-1.1,2.6-2.5,3.2c-1.5,0.6-2.9,0.3-4.1-0.8c-0.1,0.1-0.2,0.2-0.3,0.2
		C27.6,52.8,26.8,53.1,26,53.1z M14,36.6L14,36.6c-1,0.9-1.3,2.1-0.9,3.3c0.4,1.1,1.4,1.8,2.6,1.9l0.5,0l0,0.5
		c0.2,1.7,1.2,2.7,2.9,2.9l0.4,0l0.1,0.5c0,0.1,0.1,0.2,0.1,0.3c0.1,1.3,1.2,2.5,2.5,2.5c0.8,0,0.9,0.7,0.9,0.9
		c0.1,1.1,0.7,1.9,1.7,2.3c1,0.4,1.9,0.3,2.8-0.4c0.1-0.1,0.3-0.2,0.4-0.4l0.6-0.5l0.4,0.4c1,1.1,2.1,1.4,3.3,0.9
		c1.1-0.4,1.6-1.2,1.8-2.3c-0.1-0.1-0.2-0.2-0.4-0.3c-0.8-0.6-1.6-1.2-1.8-1.4c-0.3-0.3-0.2-0.5,0.1-1.7c0-0.2,0.1-0.4,0.1-0.5l0,0
		l0-0.1c0.1-0.5-0.1-1-0.4-1.4c-0.5-0.6-1.4-1-2.2-1c-0.1,0-0.2,0-0.3-0.1l-0.4-0.1l0-0.4c-0.2-1.8-1.1-2.7-2.9-2.9l-0.5-0.1l0-0.5
		c-0.2-2.4-1.9-2.8-2.9-2.9l-0.5,0l0-0.5c-0.1-0.8-0.3-1.4-0.7-1.9c-1-1.1-2.7-1.3-3.8-0.3c-0.5,0.4-1.6,1.5-2.4,2.3
		c-0.2,0.2-0.4,0.4-0.6,0.6l0,0l-0.2,0.2C14.2,36.5,14.1,36.6,14,36.6L14,36.6z M32.9,47.1c0.4,0.3,1,0.8,1.5,1.2
		c0.2,0.1,0.3,0.2,0.5,0.3c1.7-0.2,2.5-1.2,2.7-2.9l0-0.4l0.4-0.1c2-0.3,2.5-0.9,3-3l0.1-0.4l0.4,0c1.1-0.1,1.8-0.5,2-1.1
		c0.1-0.4,0-0.8-0.2-1.4c-2.8-2.8-6.9-6.9-9.8-9.8c-0.2-0.2-0.5-0.5-0.7-0.8c0,0,0,0,0,0c-0.2,0.2-0.4,0.4-0.7,0.7
		c-0.6,0.6-1.3,1.3-1.9,1.9c-1.6,1.4-3.9,1.4-5.6,0c-1.7-1.4-2.1-3.6-1.1-5.5c0.3-0.5,0.7-1,1-1.3c0.6-0.6,2-2,3-3l0.4-0.4
		c-0.9-0.7-2-1.2-3.5-1.4c-0.4-0.1-0.7-0.3-0.9-0.5c-1-1-2.1-2.1-3.1-3.1l-1.1-1.1c-0.5-0.5-0.6-0.5-1.1,0l-1.5,1.5
		C13.2,20.1,9.8,23.5,6.3,27c-0.1,0.1-0.2,0.3-0.3,0.4c0,0,0,0.1-0.1,0.1v0.1c0,0,0.1,0.1,0.1,0.1c0.2,0.2,0.3,0.4,0.5,0.6
		c1.7,1.7,3.4,3.4,5.1,5.1l2,2c0.2-0.2,0.3-0.3,0.5-0.5c0.9-0.9,2-2,2.5-2.4c1.6-1.3,4-1.1,5.4,0.5c0.5,0.6,0.8,1.3,0.9,2.1
		c1.8,0.3,3.1,1.5,3.4,3.4c1.9,0.3,3.1,1.5,3.4,3.4c1.1,0.1,2.1,0.6,2.7,1.4c0.6,0.7,0.8,1.5,0.7,2.3c0,0.1,0,0.3-0.1,0.7
		C33.1,46.5,33,46.9,32.9,47.1z M32.6,27.1l0.9,1c0.3,0.3,0.5,0.5,0.7,0.8c2.3,2.3,5.4,5.4,8,8c0.4-0.4,1.2-1.2,1.4-1.3
		c3.3-3.3,6.6-6.6,9.9-9.9c0.2-0.2,0.3-0.3,0.5-0.5c0,0,0.1-0.1,0.1-0.1v-0.1c0,0,0-0.1-0.1-0.1c-0.1-0.2-0.2-0.3-0.3-0.4
		c-2.9-2.9-5.8-5.8-8.7-8.7L43.4,14c-0.5-0.5-0.6-0.5-1.2,0l-0.9,0.9c-1.4,1.3-2.7,2.5-4.1,3.8c-0.7,0.6-1.6,1-2.5,1.1l-0.4,0
		c-0.8,0.1-1.6,0.2-2.4,0.3c-1,0.2-1.9,0.7-2.9,1.6l0,0l-0.7,0.7c-1,1-2.4,2.4-3,3c-0.3,0.3-0.6,0.7-0.9,1.1
		c-0.8,1.4-0.4,3.1,0.8,4.1c1.2,1,3,1,4.1,0c0.7-0.6,1.3-1.2,1.9-1.8c0.2-0.2,0.4-0.4,0.7-0.7c0,0,0.1-0.1,0.2-0.2
		c0-0.1,0.1-0.1,0.1-0.2L32.6,27.1z"/>
	<rect x="14.5" y="38.5" transform="matrix(0.7071 -0.7071 0.7071 0.7071 -21.9267 25.186)" class="st2" width="9.9" height="1.1"/>
	
		<rect x="17.7" y="41.7" transform="matrix(0.7071 -0.7071 0.7071 0.7071 -23.2537 28.3898)" class="st2" width="9.9" height="1.1"/>
	
		<rect x="21.2" y="45.2" transform="matrix(0.7071 -0.7071 0.7071 0.7071 -24.7083 31.9014)" class="st2" width="9.9" height="1.1"/>
	<rect x="34" y="37.3" transform="matrix(0.7071 -0.7071 0.7071 0.7071 -19.7526 36.8406)" class="st1" width="1.1" height="9.9"/>
	
		<rect x="37.5" y="34.1" transform="matrix(0.7071 -0.7071 0.7071 0.7071 -16.4603 38.3839)" class="st1" width="1.1" height="9.9"/>
	
		<rect x="27.7" y="48.5" transform="matrix(0.6714 -0.7411 0.7411 0.6714 -26.2974 38.8397)" class="st2" width="5.9" height="1.1"/>
</g>
<path d="M8.8,11C13.8,4.9,21.5,1,30,1c8.5,0,16.2,3.9,21.2,10h1.3C47.2,4.3,39.1,0,30,0C20.9,0,12.8,4.3,7.5,11H8.8z"/>
<path class="st0" d="M51.4,48.8C46.3,55,38.6,59,30,59c-8.6,0-16.3-4-21.4-10.2H7.4C12.6,55.6,20.8,60,30,60
	c9.2,0,17.4-4.4,22.6-11.2H51.4z"/>
</svg>
