<?xml version="1.0" encoding="utf-8"?>
<!-- Generator: Adobe Illustrator 25.2.0, SVG Export Plug-In . SVG Version: 6.00 Build 0)  -->
<svg version="1.1" id="Layer_1" xmlns="http://www.w3.org/2000/svg" xmlns:xlink="http://www.w3.org/1999/xlink" x="0px" y="0px"
	 viewBox="0 0 60 60" style="enable-background:new 0 0 60 60;" xml:space="preserve">
<style type="text/css">
	.st0{fill:#010101;}
	.st1{fill:#F05825;}
</style>
<g id="News">
	<g>
		<path class="st0" d="M52.2,57.9c-14.8,0-29.6,0-44.4,0c-0.3-0.1-0.5-0.2-0.8-0.3c-1.6-0.5-2.9-1.4-3.8-2.7
			c-0.6-0.8-0.9-1.7-0.9-2.7c0-1.7,0-3.3-0.1-5c0-0.2,0-0.3,0-0.5c0-12.2,0-24.4,0-36.7c0-0.5,0-1,0.1-1.5c0-0.7,0-1.4,0.1-2
			c0.2-1.4,1-2.4,2.1-3.3c0.8-0.6,1.7-1,2.8-1c1.3,0,2.6,0,3.9,0c0.7,0,1.4,0,2,0c9.1,0,18.1,0,27.2,0c0.1,0,0.2,0,0.3,0
			c0.6,0,1.2,0,1.8,0c0.7,0,1.5,0.1,2.1,0.5c1.8,1,2.9,2.5,3.1,4.6c0.1,0.8,0.1,1.7,0.1,2.5c0,2.4,0,4.9,0,7.3c0,0.1,0,0.2,0,0.4
			c0.1,0,0.3,0,0.4,0c1.2,0,2.5-0.1,3.7,0.1c2.6,0.4,4.6,1.8,5.6,4.3c0.1,0.3,0.2,0.6,0.3,0.8c0,9,0,18,0,27c0,0.1,0,0.3,0,0.4
			c0,0.6,0,1.1,0,1.7c0,0.5-0.1,1-0.2,1.5c-0.7,2.2-2.3,3.5-4.4,4.2C52.8,57.6,52.5,57.8,52.2,57.9z M47.4,56.2
			c0-0.1-0.1-0.2-0.1-0.3c-0.7-1.5-1.1-3.1-1.1-4.8c0-3.9-0.1-7.8-0.1-11.7c0-10.8-0.1-21.6-0.1-32.5c0-0.1,0-0.3,0-0.4
			c-0.3-0.8-0.8-1.5-1.5-2s-1.4-0.8-2.3-0.8c-0.8,0-1.6,0-2.4,0c-8.6,0-17.2,0-25.8,0c-2.2,0-4.4,0-6.6,0.1c-0.8,0-1.5,0.3-2.1,0.8
			c-0.6,0.6-1,1.3-1.3,2C3.9,6.7,3.8,6.9,3.8,7.1c0,12,0,24,0,36c0,2.8,0.1,5.5,0.1,8.3c0,0.9,0.1,1.8,0.7,2.6
			c1,1.2,2.1,2.1,3.8,2.1c1.4,0.1,2.9,0.1,4.3,0.1c11.5,0,22.9,0,34.4,0C47.2,56.2,47.3,56.2,47.4,56.2z M47.8,19c0,0.1,0,0.2,0,0.3
			c0,10.3,0,20.6,0.1,30.9c0,0.9,0.1,1.9,0.2,2.8c0.1,0.9,0.4,1.7,0.9,2.4c0.3,0.4,0.6,0.7,1.1,0.8c1.4,0.2,2.8-0.1,4-0.9
			c0.9-0.6,1.5-1.5,2-2.4c0.1-0.2,0.2-0.5,0.2-0.7c0-9.5,0-19.1,0-28.6c0-0.4-0.1-0.8-0.2-1.2c-0.8-1.8-2.3-2.8-4.2-3.1
			C50.6,19,49.5,19,48.3,19C48.1,19,48,19,47.8,19z"/>
		<path class="st0" d="M9.2,21c10.5,0,21,0,31.5,0c0,4.2,0,8.4,0,12.7c-10.5,0-21,0-31.5,0C9.2,29.5,9.2,25.3,9.2,21z M10.9,32
			c9.4,0,18.8,0,28.2,0c0-3.1,0-6.2,0-9.3c-9.4,0-18.8,0-28.2,0C10.9,25.8,10.9,28.9,10.9,32z"/>
		<path class="st0" d="M10,39.3c0-0.6,0-1.1,0-1.7c10,0,19.9,0,29.9,0c0,0.6,0,1.1,0,1.7C29.9,39.3,20,39.3,10,39.3z"/>
		<path class="st0" d="M39.9,43.2c0,0.6,0,1.1,0,1.7c-10,0-19.9,0-29.9,0c0-0.6,0-1.1,0-1.7C20,43.2,29.9,43.2,39.9,43.2z"/>
		<path class="st0" d="M39.9,48.7c0,0.6,0,1.1,0,1.7c-10,0-19.9,0-29.9,0c0-0.5,0-1,0.1-1.5c0-0.1,0.2-0.1,0.3-0.1
			c0.9,0,1.9,0,2.8,0c8.8,0,17.6,0,26.4,0C39.6,48.7,39.7,48.7,39.9,48.7z"/>
		<path class="st1" d="M31.5,14c0.4-1.2,0.8-2.5,1.1-3.7c0.1-0.3,0.2-0.6,0.3-0.9c0-0.1,0.1-0.2,0.2-0.2c0.3,0,0.7,0,1,0
			s0.3,0,0.2,0.4c-0.6,1.9-1.3,3.9-2,5.8c-0.1,0.3-0.2,0.5-0.3,0.8c-0.1,0.2-0.1,0.3-0.4,0.3s-0.6,0-0.9,0c-0.2,0-0.3-0.1-0.4-0.3
			c-0.5-1.3-0.9-2.6-1.4-3.9c0-0.1-0.1-0.2-0.2-0.4c-0.1,0.3-0.2,0.5-0.3,0.7c-0.4,1.2-0.8,2.4-1.2,3.6c-0.1,0.2-0.1,0.3-0.3,0.2
			c-0.3,0-0.6,0-1,0c-0.1,0-0.2-0.1-0.2-0.1c-0.8-2.3-1.5-4.6-2.3-7c0,0,0,0,0-0.1c0.5,0,1,0,1.6,0c0.5,1.5,1,3.1,1.5,4.7h0.1
			c0.1-0.3,0.2-0.6,0.3-0.9c0.4-1.1,0.8-2.3,1.1-3.4c0.1-0.3,0.2-0.4,0.5-0.3c0.2,0,0.5,0,0.7,0s0.3,0.1,0.4,0.3
			c0.5,1.4,0.9,2.8,1.4,4.2C31.3,13.8,31.4,13.9,31.5,14C31.4,14,31.4,14,31.5,14z"/>
		<path class="st1" d="M14,13.5c0-1.4,0-2.9,0-4.3c0.5,0,1,0,1.5,0c0,2.4,0,4.8,0,7.2c-0.4,0-0.8,0-1.2,0c-0.1,0-0.2-0.1-0.3-0.2
			c-1-1.3-2-2.6-2.9-3.9c-0.1-0.1-0.2-0.2-0.4-0.4c-0.1,1.5,0,3-0.1,4.5c-0.5,0-1,0-1.4,0c0-2.4,0-4.8,0-7.2c0.4,0,0.9,0,1.3,0
			c0.1,0,0.2,0.1,0.2,0.2c1,1.3,2,2.6,3,3.9C13.8,13.4,13.8,13.5,14,13.5C13.9,13.6,14,13.6,14,13.5z"/>
		<path class="st1" d="M17.3,9.2c1.8,0,3.6,0,5.4,0c0,0.4,0,0.9,0,1.3c-1.3,0-2.5,0-3.8,0c0,0.5,0,1,0,1.6c1.1,0,2.2,0,3.3,0
			c0,0.5,0,0.9,0,1.3c-1.1,0-2.2,0-3.3,0c0,0.5,0,1.1,0,1.6c1.3,0,2.6,0,3.9,0c0,0.5,0,0.9,0,1.3c-1.8,0-3.6,0-5.5,0
			C17.3,14,17.3,11.6,17.3,9.2z"/>
		<path class="st1" d="M35,15.4c0.4-0.4,0.7-0.8,1-1.1c0.2,0.1,0.4,0.3,0.6,0.4c0.5,0.3,1.1,0.5,1.7,0.5c0.3,0,0.6-0.1,0.8-0.4
			c0.2-0.3,0.1-0.5-0.2-0.7s-0.7-0.3-1.1-0.5c-0.5-0.2-1-0.3-1.4-0.5c-0.6-0.3-1-0.7-1.1-1.5c0-0.8,0.1-1.5,0.9-2
			c0.5-0.3,1.1-0.5,1.7-0.4c0.7,0.1,1.5,0.2,2.1,0.6c0.4,0.2,0.4,0.3,0.2,0.7C40.1,10.6,40,11,39.8,11c-0.2,0.1-0.5-0.1-0.7-0.2
			c-0.4-0.2-0.9-0.4-1.4-0.3c-0.2,0-0.4,0.1-0.5,0.2c-0.3,0.3-0.3,0.7,0.1,0.9c0.4,0.2,0.8,0.3,1.2,0.5c0.4,0.1,0.8,0.3,1.2,0.5
			c0.7,0.4,1.2,0.9,1.1,1.8c-0.1,0.9-0.5,1.5-1.3,1.9c-0.9,0.4-1.9,0.3-2.8,0C36.1,16,35.6,15.7,35,15.4z"/>
	</g>
</g>
</svg>
