<svg xmlns="http://www.w3.org/2000/svg" width="80" height="80" viewBox="0 0 80 80"><g transform="translate(-9835 7001)"><circle cx="40" cy="40" r="40" transform="translate(9835 -7001)"/><path d="M58.624,22.665A32.842,32.842,0,0,0,29.49,4.5,32.847,32.847,0,0,0,.356,22.666a3.313,3.313,0,0,0,0,2.989A32.842,32.842,0,0,0,29.49,43.82,32.847,32.847,0,0,0,58.624,25.654,3.312,3.312,0,0,0,58.624,22.665ZM29.49,38.905A14.745,14.745,0,1,1,44.235,24.16,14.745,14.745,0,0,1,29.49,38.905Zm0-24.575a9.759,9.759,0,0,0-2.592.388,4.9,4.9,0,0,1-6.85,6.85A9.807,9.807,0,1,0,29.49,14.33Z" transform="translate(9846 -6985.5)" fill="#fff"/></g></svg>