<?xml version="1.0" encoding="utf-8"?>
<!-- Generator: Adobe Illustrator 25.2.0, SVG Export Plug-In . SVG Version: 6.00 Build 0)  -->
<svg version="1.1" id="Layer_1" xmlns="http://www.w3.org/2000/svg" xmlns:xlink="http://www.w3.org/1999/xlink" x="0px" y="0px"
	 viewBox="0 0 60 60" style="enable-background:new 0 0 60 60;" xml:space="preserve">
<style type="text/css">
	.st0{fill:#0B1019;}
	.st1{fill:#F15A27;}
</style>
<g id="Layer_14">
	<g>
		<path class="st0" d="M49.5,52.4H17.8c-5.2,0-9.4-4.2-9.4-9.3c0-4.3,3.1-8.1,7.3-9.1c0.2-6.5,5.6-11.8,12.2-11.8
			c4.1,0,7.8,2,10.1,5.4c1.3-0.7,2.8-1,4.3-1c4.4,0,8.2,3.1,9.1,7.4c4.3,0.9,7.5,4.7,7.5,9.1C58.9,48.2,54.7,52.4,49.5,52.4z
			 M27.9,23.7c-6,0-10.8,4.8-10.8,10.8v0.7l-0.6,0.1c-3.8,0.6-6.7,4-6.7,7.8c0,4.4,3.6,7.9,8,7.9h31.6c4.4,0,8-3.6,8-7.9
			c0-3.9-2.9-7.2-6.8-7.8l-0.5-0.1L50,34.7c-0.6-3.8-4-6.7-7.8-6.7c-1.5,0-2.9,0.4-4.2,1.2l-0.6,0.4L37,29
			C35.2,25.6,31.7,23.7,27.9,23.7z"/>
		<path class="st1" d="M49.2,22.2l0.1,0.5l0.5,0.1c4.5,0.7,7.9,4.6,7.9,9.1c0,1-0.2,2-0.5,3h1.5c0.3-0.9,0.4-1.9,0.4-3
			c0-5-3.7-9.4-8.6-10.4c-1-4.9-5.4-8.5-10.4-8.5c-1.7,0-3.5,0.4-5,1.2C32.5,10.3,28.2,8,23.4,8c-7.6,0-13.7,6-14,13.5
			C4.6,22.7,1,27,1,32c0,3.8,2.1,7.2,5.1,9.1v-1.7C3.9,37.6,2.4,35,2.4,32c0-4.5,3.4-8.4,7.8-9.1l0.6-0.1v-0.7
			c0-6.9,5.6-12.6,12.6-12.6c4.5,0,8.5,2.3,10.8,6.1l0.4,0.6l0.6-0.4c1.5-0.9,3.1-1.4,4.9-1.4C44.6,14.4,48.5,17.8,49.2,22.2z"/>
	</g>
</g>
</svg>
