<?xml version="1.0" encoding="utf-8"?>
<!-- Generator: Adobe Illustrator 25.2.0, SVG Export Plug-In . SVG Version: 6.00 Build 0)  -->
<svg version="1.1" id="Layer_1" xmlns="http://www.w3.org/2000/svg" xmlns:xlink="http://www.w3.org/1999/xlink" x="0px" y="0px"
	 viewBox="0 0 60 60" style="enable-background:new 0 0 60 60;" xml:space="preserve">
<style type="text/css">
	.st0{fill:#0C111A;}
	.st1{fill:#F15F29;}
</style>
<g id="Tetrate_Istio_Subscription">
	<g>
		<path class="st0" d="M29.8,57.9c-3.1,0-6.2-0.5-9.2-1.5C9.1,52.6,1.9,42.5,2,30.1c0.1-8.9,4.2-17,11.5-22.4
			c7.2-5.3,16.2-7,24.5-4.4C49.5,6.7,57.5,17,58,29v0.1v0.1c-0.2,1.3-1.2,1.9-2.2,2c-1.1,0.1-2.1-0.6-2.3-1.7v-0.1
			c-0.2-7.3-4-14.1-10.1-18.2c-7-4.8-16-5.2-23.5-1.2s-12,11.5-12,20c0,9.1,6.6,16.4,14.8,16.4c2.5,0,4.8-1.2,7.2-2.4
			c3-1.5,6.1-3.1,10.2-2.8c1.2,0.1,1.6,0.6,1.7,1c0.1,0.4,0.1,0.9-0.7,1.6c-0.6,0.6-1.6,1.1-2.6,1.7c-0.4,0.2-0.9,0.5-1.3,0.8
			c-2.4,1.4-2.8,2.4-2.7,2.8c0.2,0.4,1.1,0.7,2.7,0.4c3.7-0.7,9-4.5,10.4-5.7c1.6-1.4,4.8-2.6,6.1-1.4c0.8,0.7,0.5,2-0.7,3.7
			c-3.8,5.2-9,8.9-15,10.6C35.2,57.5,32.5,57.9,29.8,57.9z M30.2,3.3c-5.6,0-11.2,1.8-16,5.4c-7,5.1-11,13-11,21.5
			C3.1,44.3,12.3,52.5,21,55.3c11.6,3.8,23.7-0.1,30.9-9.9c1-1.4,1-2,0.9-2.2c-0.5-0.5-3,0.1-4.5,1.4c-1.5,1.3-7,5.2-10.9,5.9
			c-2.1,0.4-3.6-0.1-4-1.1c-0.3-0.7-0.2-2.2,3.2-4.2c0.4-0.3,0.9-0.5,1.3-0.8c0.9-0.5,1.8-1,2.4-1.5c0.3-0.2,0.3-0.4,0.4-0.4
			c-0.1-0.1-0.3-0.2-0.7-0.2c-3.7-0.3-6.7,1.2-9.5,2.7c-2.5,1.3-4.9,2.5-7.7,2.5c-8.8,0-15.9-7.9-15.9-17.6c0-9,4.7-16.8,12.6-21
			S36.8,5.1,44.1,10c6.4,4.2,10.4,11.3,10.6,19c0.2,0.6,0.7,0.8,1.1,0.8c0.4,0,1-0.3,1.1-0.9C56.3,17.5,48.7,7.7,37.7,4.4
			C35.2,3.7,32.7,3.3,30.2,3.3z"/>
	</g>
	<path class="st1" d="M34.9,39.5l-1-0.5c4-8.8,0.1-17-3.8-22.4L29,15.1l1.8,0.7c3.8,1.4,7.8,4.2,10.8,7.5c3.3,3.7,5,7.6,4.9,11.1
		l-1.1-0.1c0.3-6.4-6.4-13.5-13.1-16.7C35.8,23.2,38.7,31.1,34.9,39.5z"/>
	<path class="st1" d="M23.2,42.2l-1-0.6c3.6-6,3.6-13.1,3.6-15.1c-0.2-5.2-1.1-9.5-2.9-13.9l-0.7-1.7l1.5,1c0,0,3.7,3.3,6.5,8.7
		c3.6,6.9,3.9,13.7,0.9,19.8l-1-0.5c2.9-5.8,2.6-12.1-0.8-18.7c-1.4-2.8-3.1-5-4.4-6.5c1.2,3.6,1.8,7.3,2,11.6
		C27,28.5,26.9,35.9,23.2,42.2z"/>
</g>
</svg>
