<?xml version="1.0" encoding="utf-8"?>
<!-- Generator: Adobe Illustrator 25.2.0, SVG Export Plug-In . SVG Version: 6.00 Build 0)  -->
<svg version="1.1" id="Layer_1" xmlns="http://www.w3.org/2000/svg" xmlns:xlink="http://www.w3.org/1999/xlink" x="0px" y="0px"
	 viewBox="0 0 60 60" style="enable-background:new 0 0 60 60;" xml:space="preserve">
<style type="text/css">
	.st0{fill:#F15A27;}
	.st1{fill:#010101;}
</style>
<g id="Tetrate_Library">
	<g>
		<path class="st0" d="M30.4,33.6c-3.3,0-6.5,0-9.8,0c-0.4,0-1-0.1-1.3-0.4c-0.7-0.5-0.4-1.6,0.4-1.8c0.3-0.1,0.7-0.1,1.1-0.1
			c6.4,0,12.9,0,19.3,0c0.2,0,0.4,0,0.6,0c0.7,0.1,1.2,0.4,1.2,1.2s-0.5,1.2-1.3,1.2c-2.5,0-5,0-7.5,0
			C32.2,33.6,31.3,33.6,30.4,33.6z"/>
		<path class="st0" d="M30.4,20.8c-3.2,0-6.4,0-9.7,0c-0.3,0-0.7,0.1-1-0.1s-0.8-0.6-0.8-0.9c0-0.4,0.3-0.9,0.6-1.2
			c0.2-0.2,0.7-0.2,1.1-0.2c6.5,0,13,0,19.5,0c0.3,0,0.7,0,0.9,0.1c0.3,0.3,0.8,0.8,0.7,1.1c0,0.4-0.5,0.8-0.9,1s-0.9,0.1-1.3,0.1
			C36.6,20.8,33.5,20.8,30.4,20.8z"/>
		<path class="st0" d="M30.4,27.2c-3.2,0-6.4,0-9.7,0c-0.3,0-0.7,0.1-1-0.1s-0.8-0.6-0.8-0.9c0-0.4,0.3-0.9,0.6-1.2
			c0.2-0.2,0.7-0.2,1.1-0.2c6.5,0,13,0,19.5,0c0.3,0,0.6,0,0.9,0.1c0.6,0.2,0.9,0.6,0.8,1.2c-0.1,0.6-0.4,1-1,1c-0.4,0-0.7,0-1.1,0
			C36.7,27.2,33.6,27.2,30.4,27.2z"/>
		<path class="st0" d="M30.4,40.1c-3.2,0-6.4,0-9.6,0c-0.3,0-0.7,0.1-1-0.1c-0.4-0.2-0.8-0.5-0.9-0.9c-0.2-0.6,0.1-1.1,0.7-1.2
			c0.3-0.1,0.7-0.1,1.1-0.1c6.4,0,12.9,0,19.3,0c0.4,0,0.9,0,1.1,0.2c0.3,0.3,0.7,0.8,0.7,1.2c0,0.3-0.5,0.7-0.9,0.9
			c-0.2,0.1-0.6,0.1-1,0.1C36.8,40.1,33.6,40.1,30.4,40.1z"/>
		<path class="st0" d="M25.9,14.3c-1.8,0-3.7,0-5.5,0c-1,0-1.5-0.4-1.5-1.1c0-0.8,0.5-1.2,1.5-1.2c3.7,0,7.4,0,11.1,0
			c0.1,0,0.3,0,0.4,0c0.7,0.1,1.1,0.6,1.1,1.3s-0.5,1-1.2,1C29.9,14.3,27.9,14.3,25.9,14.3L25.9,14.3z"/>
		<path class="st1" d="M25.9,53.7c0,1.8,0,0.9,0,2.7c-9,0-14.2,0-23.3,0c0-12.1,0-25.5,0-37.7c4.5,0,0.6,0,5.1,0v-1.3
			c-4.7,0-0.2,0-4.9,0c-1.3,0-1.6,0.3-1.6,1.6c0,6.2,0,12.4,0,18.6s0,12.3,0,18.5c0,1.4,0.3,1.7,1.7,1.7c9.3,0,13.3,0,22.6,0
			c1.4,0,1.7-0.3,1.7-1.7c0-1.9,0-0.5,0-2.4H25.9z"/>
		<path class="st1" d="M34.1,53.7c0,1.8,0,0.9,0,2.7c9,0,14.2,0,23.3,0c0-12.1,0-25.6,0-37.7c-4.5,0-0.6,0-5.1,0v-1.3
			c4.7,0,0.2,0,4.9,0c1.3,0,1.6,0.3,1.6,1.6c0,6.2,0,12.4,0,18.6s0,12.3,0,18.5c0,1.4-0.3,1.7-1.7,1.7c-9.3,0-13.3,0-22.6,0
			c-1.4,0-1.7-0.3-1.7-1.7c0-1.9,0-0.5,0-2.4H34.1z"/>
		<path class="st1" d="M48.6,14.5c0-1.1-0.3-1.8-1.1-2.6c-2.9-2.8-5.8-5.7-8.7-8.6c-0.7-0.7-1.4-1-2.3-1c-7.4,0-14.8,0-22.2,0
			c-1.5,0-1.9,0.3-1.9,1.8c0,7.2,0,14.3,0,21.5c0,7.1,0,14.3,0,21.4c0,1.7,0.3,2,2,2c10.7,0,21.5,0,32.2,0c1.7,0,2-0.3,2-2
			C48.5,36.2,48.5,25.3,48.6,14.5z M37.4,3.8l9.1,9.5h-9.1V3.8z M13.7,47.7c0-14,0-29.7,0-43.7C20.9,4,29,4,36.1,4
			c0,0.3,0,1.3,0,1.6c0,2.4,0,4.9,0,7.3c0,1.3,0.3,1.6,1.7,1.6c2.8,0,6.6,0,9.4,0c0,10.7,0,22.3,0,33.1
			C36.7,47.7,24.2,47.7,13.7,47.7z"/>
	</g>
</g>
</svg>
