<?xml version="1.0" encoding="utf-8"?>
<!-- Generator: Adobe Illustrator 25.2.0, SVG Export Plug-In . SVG Version: 6.00 Build 0)  -->
<svg version="1.1" id="Layer_1" xmlns="http://www.w3.org/2000/svg" xmlns:xlink="http://www.w3.org/1999/xlink" x="0px" y="0px"
	 viewBox="0 0 60 60" style="enable-background:new 0 0 60 60;" xml:space="preserve">
<style type="text/css">
	.st0{fill:#0B1019;}
	.st1{fill:#F15A27;}
</style>
<g id="Tetrate_Service_Bridge">
	<g>
		<path class="st0" d="M36.9,47.3c0,1.3,0,2.7-0.1,4c0,0.2-0.1,0.4-0.3,0.5c-2.4,1.1-4.8,2.3-7.1,3.4c-0.2,0.1-0.4,0.1-0.6,0
			c-2.3-1.2-4.7-2.4-7-3.6c-0.2-0.1-0.3-0.2-0.3-0.5c0-2.7,0.1-5.5,0.1-8.2c0-0.2,0.1-0.3,0.3-0.4c2.4-1,4.7-1.9,7.1-2.9
			c0.2-0.1,0.4-0.1,0.7,0c2.3,1,4.6,2.1,7,3.1c0.2,0.1,0.3,0.2,0.3,0.4C37,44.6,37,45.9,36.9,47.3z M22.8,43.7c0,0.1,0,0.2,0,0.2
			c0,2.2-0.1,4.4-0.1,6.7c0,0.2,0.1,0.3,0.3,0.4c1.9,0.9,3.7,1.8,5.6,2.8c0.1,0,0.2,0.1,0.3,0.1c0-0.1,0-0.1,0-0.2
			c0-2.3,0.1-4.7,0.1-7c0-0.1-0.1-0.3-0.2-0.3c-0.5-0.3-1.1-0.5-1.7-0.8C25.6,45,24.2,44.4,22.8,43.7z M36.1,44
			c-0.1,0.1-0.3,0.1-0.4,0.1c-1.9,0.8-3.7,1.6-5.6,2.3c-0.2,0.1-0.3,0.2-0.3,0.5c0,2.2-0.1,4.4-0.1,6.6c0,0.1,0,0.2,0,0.4
			c0.1-0.1,0.2-0.1,0.3-0.1c1.8-0.9,3.7-1.7,5.5-2.6c0.2-0.1,0.3-0.2,0.3-0.5c0-2.1,0.1-4.3,0.1-6.4C36.1,44.3,36.1,44.2,36.1,44z
			 M23.7,43c0.1,0,0.1,0.1,0.1,0.1c1.8,0.8,3.6,1.7,5.5,2.5c0.1,0.1,0.3,0,0.5,0c1.8-0.7,3.5-1.5,5.3-2.2c0.1,0,0.2-0.1,0.3-0.1
			c-0.1,0-0.1-0.1-0.1-0.1c-1.8-0.8-3.7-1.6-5.5-2.5c-0.1,0-0.3,0-0.4,0c-1.8,0.7-3.5,1.4-5.3,2.2C23.9,42.9,23.8,43,23.7,43z"/>
		<path class="st1" d="M38.3,24.5c0,1.3,0,2.7-0.1,4c0,0.2-0.1,0.4-0.3,0.5c-2.4,1.1-4.8,2.3-7.1,3.4c-0.2,0.1-0.4,0.1-0.6,0
			c-2.3-1.2-4.7-2.4-7-3.6c-0.2-0.1-0.3-0.2-0.3-0.5c0-2.7,0.1-5.5,0.1-8.2c0-0.2,0.1-0.3,0.3-0.4c2.4-1,4.7-1.9,7.1-2.9
			c0.2-0.1,0.4-0.1,0.7,0c2.3,1,4.6,2.1,7,3.1c0.2,0.1,0.3,0.2,0.3,0.4C38.4,21.7,38.4,23.1,38.3,24.5z M24.2,20.9
			c0,0.1,0,0.2,0,0.2c0,2.2-0.1,4.4-0.1,6.7c0,0.2,0.1,0.3,0.3,0.4c1.9,0.9,3.7,1.8,5.6,2.8c0.1,0,0.2,0.1,0.3,0.1
			c0-0.1,0-0.1,0-0.2c0-2.3,0.1-4.7,0.1-7c0-0.1-0.1-0.3-0.2-0.3c-0.5-0.3-1.1-0.5-1.7-0.8C27,22.2,25.6,21.6,24.2,20.9z M37.5,21.2
			c-0.1,0.1-0.3,0.1-0.4,0.1c-1.9,0.8-3.7,1.6-5.6,2.3c-0.2,0.1-0.3,0.2-0.3,0.5c0,2.2-0.1,4.4-0.1,6.6c0,0.1,0,0.2,0,0.4
			c0.1-0.1,0.2-0.1,0.3-0.1c1.8-0.9,3.7-1.7,5.5-2.6c0.2-0.1,0.3-0.2,0.3-0.5c0-2.1,0.1-4.3,0.1-6.4C37.5,21.4,37.5,21.3,37.5,21.2z
			 M25.1,20.2c0.1,0,0.1,0.1,0.1,0.1c1.8,0.8,3.6,1.7,5.5,2.5c0.1,0.1,0.3,0,0.5,0c1.8-0.7,3.5-1.5,5.3-2.2c0.1,0,0.2-0.1,0.3-0.1
			c-0.1,0-0.1-0.1-0.1-0.1c-1.8-0.8-3.7-1.6-5.5-2.5c-0.1,0-0.3,0-0.4,0c-1.8,0.7-3.5,1.4-5.3,2.2C25.3,20.1,25.2,20.1,25.1,20.2z"
			/>
		<path class="st0" d="M51.5,47.4c0,1.3-0.1,2.7-0.1,4c0,0.2-0.1,0.4-0.3,0.5c-2.4,1.1-4.8,2.2-7.2,3.3c-0.2,0.1-0.4,0.1-0.6,0
			c-2.3-1.2-4.6-2.5-6.9-3.7c-0.2-0.1-0.3-0.2-0.3-0.5c0.1-2.7,0.2-5.5,0.2-8.2c0-0.2,0.1-0.3,0.3-0.4c2.4-0.9,4.8-1.9,7.1-2.8
			c0.2-0.1,0.4-0.1,0.7,0c2.3,1.1,4.6,2.1,6.9,3.2c0.2,0.1,0.3,0.2,0.3,0.5C51.6,44.7,51.5,46.1,51.5,47.4z M37.4,43.6
			c0,0.1,0,0.2,0,0.2c-0.1,2.2-0.1,4.4-0.2,6.7c0,0.2,0.1,0.3,0.3,0.4c1.8,0.9,3.7,1.9,5.5,2.8c0.1,0,0.2,0.1,0.3,0.1
			c0-0.1,0-0.1,0-0.2c0.1-2.3,0.1-4.7,0.2-7c0-0.1-0.1-0.3-0.2-0.3c-0.5-0.3-1.1-0.5-1.6-0.8C40.2,45,38.8,44.3,37.4,43.6z
			 M50.7,44.1c-0.1,0.1-0.3,0.1-0.4,0.1c-1.9,0.8-3.7,1.5-5.6,2.3c-0.2,0.1-0.3,0.2-0.3,0.5c-0.1,2.2-0.1,4.4-0.2,6.6
			c0,0.1,0,0.2,0,0.4c0.1-0.1,0.2-0.1,0.3-0.1c1.9-0.8,3.7-1.7,5.6-2.5c0.2-0.1,0.3-0.2,0.3-0.5c0-2.1,0.1-4.3,0.2-6.4
			C50.7,44.4,50.7,44.2,50.7,44.1z M38.3,42.9C38.4,42.9,38.4,43,38.3,42.9c1.9,1,3.7,1.8,5.5,2.7c0.1,0.1,0.3,0,0.5,0
			c1.8-0.7,3.5-1.4,5.3-2.1c0.1,0,0.2-0.1,0.3-0.1c-0.1,0-0.1-0.1-0.1-0.1c-1.8-0.8-3.6-1.7-5.4-2.5c-0.1-0.1-0.3,0-0.4,0
			c-1.8,0.7-3.5,1.4-5.3,2.1C38.5,42.9,38.4,42.9,38.3,42.9z"/>
		<path class="st1" d="M30.6,35.6c0,1.3,0,2.7-0.1,4c0,0.2-0.1,0.4-0.3,0.5c-2.4,1.1-4.8,2.3-7.1,3.4c-0.2,0.1-0.4,0.1-0.6,0
			c-2.3-1.2-4.7-2.4-7-3.6c-0.2-0.1-0.3-0.2-0.3-0.5c0-2.7,0.1-5.5,0.1-8.2c0-0.2,0.1-0.3,0.3-0.4c2.4-1,4.7-1.9,7.1-2.9
			c0.2-0.1,0.4-0.1,0.7,0c2.3,1,4.6,2.1,7,3.1c0.2,0.1,0.3,0.2,0.3,0.4C30.7,32.9,30.7,34.2,30.6,35.6z M16.5,32c0,0.1,0,0.2,0,0.2
			c0,2.2-0.1,4.4-0.1,6.7c0,0.2,0.1,0.3,0.3,0.4c1.9,0.9,3.7,1.8,5.6,2.8c0.1,0,0.2,0.1,0.3,0.1c0-0.1,0-0.1,0-0.2
			c0-2.3,0.1-4.7,0.1-7c0-0.1-0.1-0.3-0.2-0.3c-0.5-0.3-1.1-0.5-1.7-0.8C19.3,33.3,17.9,32.7,16.5,32z M29.8,32.3
			c-0.1,0.1-0.3,0.1-0.4,0.1c-1.9,0.8-3.7,1.6-5.6,2.3c-0.2,0.1-0.3,0.2-0.3,0.5c0,2.2-0.1,4.4-0.1,6.6c0,0.1,0,0.2,0,0.4
			c0.1-0.1,0.2-0.1,0.3-0.1c1.8-0.9,3.7-1.7,5.5-2.6c0.2-0.1,0.3-0.2,0.3-0.5c0-2.1,0.1-4.3,0.1-6.4C29.8,32.6,29.8,32.5,29.8,32.3z
			 M17.4,31.3c0.1,0,0.1,0.1,0.1,0.1c1.8,0.8,3.6,1.7,5.5,2.5c0.1,0.1,0.3,0,0.5,0c1.8-0.7,3.5-1.5,5.3-2.2c0.1,0,0.2-0.1,0.3-0.1
			c-0.1,0-0.1-0.1-0.1-0.1c-1.8-0.8-3.7-1.6-5.5-2.5c-0.1,0-0.3,0-0.4,0c-1.8,0.7-3.5,1.4-5.3,2.2C17.6,31.2,17.5,31.3,17.4,31.3z"
			/>
		<path class="st0" d="M23,47.1c0,1.3,0,2.7-0.1,4c0,0.2-0.1,0.4-0.3,0.5c-2.4,1.1-4.8,2.3-7.1,3.4c-0.2,0.1-0.4,0.1-0.6,0
			c-2.3-1.2-4.7-2.4-7-3.6c-0.2-0.1-0.3-0.2-0.3-0.5c0-2.7,0.1-5.5,0.1-8.2c0-0.2,0.1-0.3,0.3-0.4c2.4-1,4.7-1.9,7.1-2.9
			c0.2-0.1,0.4-0.1,0.7,0c2.3,1,4.6,2.1,7,3.1C23,42.6,23,42.8,23,43C23,44.4,23,45.7,23,47.1z M8.8,43.5c0,0.1,0,0.2,0,0.2
			c0,2.2-0.1,4.4-0.1,6.7c0,0.2,0.1,0.3,0.3,0.4c1.9,0.9,3.7,1.8,5.6,2.8c0.1,0,0.2,0.1,0.3,0.1c0-0.1,0-0.1,0-0.2
			c0-2.3,0.1-4.7,0.1-7c0-0.1-0.1-0.3-0.2-0.3c-0.5-0.3-1.1-0.5-1.7-0.8C11.6,44.8,10.2,44.2,8.8,43.5z M22.1,43.8
			c-0.1,0.1-0.3,0.1-0.4,0.1c-1.9,0.8-3.7,1.6-5.6,2.3c-0.2,0.1-0.3,0.2-0.3,0.5c0,2.2-0.1,4.4-0.1,6.6c0,0.1,0,0.2,0,0.4
			c0.1-0.1,0.2-0.1,0.3-0.1c1.8-0.9,3.7-1.7,5.5-2.6c0.2-0.1,0.3-0.2,0.3-0.5c0-2.1,0.1-4.3,0.1-6.4C22.1,44.1,22.1,43.9,22.1,43.8z
			 M15.7,45.4c1.8-0.7,3.5-1.5,5.3-2.2c0.1,0,0.2-0.1,0.3-0.1c-0.1,0-0.1-0.1-0.1-0.1c-1.8-0.8-3.7-1.6-5.5-2.5c-0.1,0-0.3,0-0.4,0
			c-1.8,0.7-3.5,1.4-5.3,2.2c-0.1,0-0.2,0.1-0.3,0.1c0.1,0,0.1,0.1,0.1,0.1"/>
		<path class="st1" d="M44.6,36.1c0,1.3-0.1,2.7-0.1,4c0,0.2-0.1,0.4-0.3,0.5c-2.4,1.1-4.8,2.2-7.2,3.3c-0.2,0.1-0.4,0.1-0.6,0
			c-2.3-1.2-4.6-2.5-6.9-3.7c-0.2-0.1-0.3-0.2-0.3-0.5c0.1-2.7,0.2-5.5,0.2-8.2c0-0.2,0.1-0.3,0.3-0.4c2.4-0.9,4.8-1.9,7.1-2.8
			c0.2-0.1,0.4-0.1,0.7,0c2.3,1.1,4.6,2.1,6.9,3.2c0.2,0.1,0.3,0.2,0.3,0.5C44.7,33.4,44.7,34.7,44.6,36.1z M30.5,32.3
			c0,0.1,0,0.2,0,0.2c-0.1,2.2-0.1,4.4-0.2,6.7c0,0.2,0.1,0.3,0.3,0.4c1.8,0.9,3.7,1.9,5.5,2.8c0.1,0,0.2,0.1,0.3,0.1
			c0-0.1,0-0.1,0-0.2c0.1-2.3,0.1-4.7,0.2-7c0-0.1-0.1-0.3-0.2-0.3c-0.5-0.3-1.1-0.5-1.6-0.8C33.3,33.7,31.9,33,30.5,32.3z
			 M43.9,32.8c-0.1,0.1-0.3,0.1-0.4,0.1c-1.9,0.8-3.7,1.5-5.6,2.3c-0.2,0.1-0.3,0.2-0.3,0.5c-0.1,2.2-0.1,4.4-0.2,6.6
			c0,0.1,0,0.2,0,0.4c0.1-0.1,0.2-0.1,0.3-0.1c1.9-0.8,3.7-1.7,5.6-2.5c0.2-0.1,0.3-0.2,0.3-0.5c0-2.1,0.1-4.3,0.2-6.4
			C43.9,33,43.9,32.9,43.9,32.8z M31.4,31.6c0.1,0,0.1,0.1,0.1,0.1c1.8,0.9,3.6,1.7,5.4,2.6c0.1,0.1,0.3,0,0.5,0
			c1.8-0.7,3.5-1.4,5.3-2.1c0.1,0,0.2-0.1,0.3-0.1c-0.1,0-0.1-0.1-0.1-0.1c-1.8-0.8-3.6-1.7-5.4-2.5c-0.1-0.1-0.3,0-0.4,0
			c-1.8,0.7-3.5,1.4-5.3,2.1C31.6,31.5,31.5,31.6,31.4,31.6z"/>
		<path class="st1" d="M16.4,35.3c0,1.3,0,2.7-0.1,4c0,0.2-0.1,0.4-0.3,0.5c-2.4,1.1-4.8,2.3-7.1,3.4c-0.2,0.1-0.4,0.1-0.6,0
			c-2.3-1.2-4.7-2.4-7-3.6C1.1,39.5,1,39.4,1,39.2c0-2.7,0.1-5.5,0.1-8.2c0-0.2,0.1-0.3,0.3-0.4c2.4-1,4.7-1.9,7.1-2.9
			c0.2-0.1,0.4-0.1,0.7,0c2.3,1,4.6,2.1,7,3.1c0.2,0.1,0.3,0.2,0.3,0.4C16.4,32.6,16.4,34,16.4,35.3z M2.2,31.8c0,0.1,0,0.2,0,0.2
			c0,2.2-0.1,4.4-0.1,6.7c0,0.2,0.1,0.3,0.3,0.4C4.3,40,6.1,40.9,8,41.9c0.1,0,0.2,0.1,0.3,0.1c0-0.1,0-0.1,0-0.2
			c0-2.3,0.1-4.7,0.1-7c0-0.1-0.1-0.3-0.2-0.3C7.5,34.2,7,34,6.4,33.7C5,33.1,3.6,32.4,2.2,31.8z M15.6,32c-0.1,0.1-0.3,0.1-0.4,0.1
			c-1.9,0.8-3.7,1.6-5.6,2.3c-0.2,0.1-0.3,0.2-0.3,0.5c0,2.2-0.1,4.4-0.1,6.6c0,0.1,0,0.2,0,0.4c0.1-0.1,0.2-0.1,0.3-0.1
			c1.8-0.9,3.7-1.7,5.5-2.6c0.2-0.1,0.3-0.2,0.3-0.5c0-2.1,0.1-4.3,0.1-6.4C15.6,32.3,15.6,32.2,15.6,32z M3.1,31
			c0.1,0,0.1,0.1,0.1,0.1c1.8,0.8,3.6,1.7,5.5,2.5c0.1,0.1,0.3,0,0.5,0c1.8-0.7,3.5-1.5,5.3-2.2c0.1,0,0.2-0.1,0.3-0.1
			c-0.1,0-0.1-0.1-0.1-0.1c-1.8-0.8-3.7-1.6-5.5-2.5c-0.1,0-0.3,0-0.4,0c-1.8,0.7-3.5,1.4-5.3,2.2C3.3,30.9,3.2,31,3.1,31z"/>
		<path class="st1" d="M16.4,35.3c0,1.3,0,2.7-0.1,4c0,0.2-0.1,0.4-0.3,0.5c-2.4,1.1-4.8,2.3-7.1,3.4c-0.2,0.1-0.4,0.1-0.6,0
			c-2.3-1.2-4.7-2.4-7-3.6C1.1,39.5,1,39.4,1,39.2c0-2.7,0.1-5.5,0.1-8.2c0-0.2,0.1-0.3,0.3-0.4c2.4-1,4.7-1.9,7.1-2.9
			c0.2-0.1,0.4-0.1,0.7,0c2.3,1,4.6,2.1,7,3.1c0.2,0.1,0.3,0.2,0.3,0.4C16.4,32.6,16.4,34,16.4,35.3z M2.2,31.8c0,0.1,0,0.2,0,0.2
			c0,2.2-0.1,4.4-0.1,6.7c0,0.2,0.1,0.3,0.3,0.4C4.3,40,6.1,40.9,8,41.9c0.1,0,0.2,0.1,0.3,0.1c0-0.1,0-0.1,0-0.2
			c0-2.3,0.1-4.7,0.1-7c0-0.1-0.1-0.3-0.2-0.3C7.5,34.2,7,34,6.4,33.7C5,33.1,3.6,32.4,2.2,31.8z M15.6,32c-0.1,0.1-0.3,0.1-0.4,0.1
			c-1.9,0.8-3.7,1.6-5.6,2.3c-0.2,0.1-0.3,0.2-0.3,0.5c0,2.2-0.1,4.4-0.1,6.6c0,0.1,0,0.2,0,0.4c0.1-0.1,0.2-0.1,0.3-0.1
			c1.8-0.9,3.7-1.7,5.5-2.6c0.2-0.1,0.3-0.2,0.3-0.5c0-2.1,0.1-4.3,0.1-6.4C15.6,32.3,15.6,32.2,15.6,32z M3.1,31
			c0.1,0,0.1,0.1,0.1,0.1c1.8,0.8,3.6,1.7,5.5,2.5c0.1,0.1,0.3,0,0.5,0c1.8-0.7,3.5-1.5,5.3-2.2c0.1,0,0.2-0.1,0.3-0.1
			c-0.1,0-0.1-0.1-0.1-0.1c-1.8-0.8-3.7-1.6-5.5-2.5c-0.1,0-0.3,0-0.4,0c-1.8,0.7-3.5,1.4-5.3,2.2C3.3,30.9,3.2,31,3.1,31z"/>
		<path class="st1" d="M59,36.4c0,1.3,0,2.7-0.1,4c0,0.2-0.1,0.4-0.3,0.5c-2.4,1.1-4.8,2.3-7.1,3.4c-0.2,0.1-0.4,0.1-0.6,0
			c-2.3-1.2-4.7-2.4-7-3.6c-0.2-0.1-0.3-0.2-0.3-0.5c0-2.7,0.1-5.5,0.1-8.2c0-0.2,0.1-0.3,0.3-0.4c2.4-1,4.7-1.9,7.1-2.9
			c0.2-0.1,0.4-0.1,0.7,0c2.3,1,4.6,2.1,7,3.1c0.2,0.1,0.3,0.2,0.3,0.4C59.1,33.6,59.1,35,59,36.4z M44.9,32.8c0,0.1,0,0.2,0,0.2
			c0,2.2-0.1,4.4-0.1,6.7c0,0.2,0.1,0.3,0.3,0.4c1.9,0.9,3.7,1.8,5.6,2.8c0.1,0,0.2,0.1,0.3,0.1c0-0.1,0-0.1,0-0.2
			c0-2.3,0.1-4.7,0.1-7c0-0.1-0.1-0.3-0.2-0.3c-0.5-0.3-1.1-0.5-1.7-0.8C47.7,34.1,46.3,33.5,44.9,32.8z M58.2,33.1
			c-0.1,0.1-0.3,0.1-0.4,0.1c-1.9,0.8-3.7,1.6-5.6,2.3C52.1,35.6,52,35.8,52,36c0,2.2-0.1,4.4-0.1,6.6c0,0.1,0,0.2,0,0.4
			c0.1-0.1,0.2-0.1,0.3-0.1c1.8-0.9,3.7-1.7,5.5-2.6c0.2-0.1,0.3-0.2,0.3-0.5c0-2.1,0.1-4.3,0.1-6.4C58.2,33.3,58.2,33.2,58.2,33.1z
			 M45.8,32.1C45.9,32.1,45.9,32.2,45.8,32.1c1.9,0.9,3.7,1.8,5.6,2.6c0.1,0.1,0.3,0,0.5,0c1.8-0.7,3.5-1.5,5.3-2.2
			c0.1,0,0.2-0.1,0.3-0.1c-0.1,0-0.1-0.1-0.1-0.1c-1.8-0.8-3.7-1.6-5.5-2.5c-0.1,0-0.3,0-0.4,0c-1.8,0.7-3.5,1.4-5.3,2.2
			C46,32,45.9,32,45.8,32.1z"/>
		<path class="st1" d="M52.4,25c0,1.3,0,2.7-0.1,4c0,0.2-0.1,0.4-0.3,0.5c-2.4,1.1-4.8,2.3-7.1,3.4c-0.2,0.1-0.4,0.1-0.6,0
			c-2.3-1.2-4.7-2.4-7-3.6c-0.2-0.1-0.3-0.2-0.3-0.5c0-2.7,0.1-5.5,0.1-8.2c0-0.2,0.1-0.3,0.3-0.4c2.4-1,4.7-1.9,7.1-2.9
			c0.2-0.1,0.4-0.1,0.7,0c2.3,1,4.6,2.1,7,3.1c0.2,0.1,0.3,0.2,0.3,0.4C52.4,22.2,52.4,23.6,52.4,25z M38.2,21.4c0,0.1,0,0.2,0,0.2
			c0,2.2-0.1,4.4-0.1,6.7c0,0.2,0.1,0.3,0.3,0.4c1.9,0.9,3.7,1.8,5.6,2.8c0.1,0,0.2,0.1,0.3,0.1c0-0.1,0-0.1,0-0.2
			c0-2.3,0.1-4.7,0.1-7c0-0.1-0.1-0.3-0.2-0.3c-0.5-0.3-1.1-0.5-1.7-0.8C41.1,22.7,39.7,22.1,38.2,21.4z M51.6,21.7
			c-0.1,0.1-0.3,0.1-0.4,0.1c-1.9,0.8-3.7,1.6-5.6,2.3c-0.2,0.1-0.3,0.2-0.3,0.5c0,2.2-0.1,4.4-0.1,6.6c0,0.1,0,0.2,0,0.4
			c0.1-0.1,0.2-0.1,0.3-0.1c1.8-0.9,3.7-1.7,5.5-2.6c0.2-0.1,0.3-0.2,0.3-0.5c0-2.1,0.1-4.3,0.1-6.4C51.6,21.9,51.6,21.8,51.6,21.7z
			 M39.1,20.7c0.1,0,0.1,0.1,0.1,0.1c1.8,0.8,3.6,1.7,5.5,2.5c0.1,0.1,0.3,0,0.5,0c1.8-0.7,3.5-1.5,5.3-2.2c0.1,0,0.2-0.1,0.3-0.1
			c-0.1,0-0.1-0.1-0.1-0.1c-1.8-0.8-3.7-1.6-5.5-2.5c-0.1,0-0.3,0-0.4,0c-1.8,0.7-3.5,1.4-5.3,2.2C39.3,20.6,39.2,20.6,39.1,20.7z"
			/>
		<path class="st1" d="M24,24.2c0,1.3,0,2.7-0.1,4c0,0.2-0.1,0.4-0.3,0.5c-2.4,1.1-4.8,2.3-7.1,3.4c-0.2,0.1-0.4,0.1-0.6,0
			c-2.3-1.2-4.7-2.4-7-3.6c-0.2-0.1-0.3-0.2-0.3-0.5c0-2.7,0.1-5.5,0.1-8.2c0-0.2,0.1-0.3,0.3-0.4c2.4-1,4.7-1.9,7.1-2.9
			c0.2-0.1,0.4-0.1,0.7,0c2.3,1,4.6,2.1,7,3.1c0.2,0.1,0.3,0.2,0.3,0.4C24,21.5,24,22.9,24,24.2z M9.8,20.7c0,0.1,0,0.2,0,0.2
			c0,2.2-0.1,4.4-0.1,6.7c0,0.2,0.1,0.3,0.3,0.4c1.9,0.9,3.7,1.8,5.6,2.8c0.1,0,0.2,0.1,0.3,0.1c0-0.1,0-0.1,0-0.2
			c0-2.3,0.1-4.7,0.1-7c0-0.1-0.1-0.3-0.2-0.3c-0.5-0.3-1.1-0.5-1.7-0.8C12.7,22,11.3,21.3,9.8,20.7z M23.2,20.9
			C23,21,22.9,21,22.8,21c-1.9,0.8-3.7,1.6-5.6,2.3C17,23.5,17,23.6,17,23.9c0,2.2-0.1,4.4-0.1,6.6c0,0.1,0,0.2,0,0.4
			c0.1-0.1,0.2-0.1,0.3-0.1c1.8-0.9,3.7-1.7,5.5-2.6c0.2-0.1,0.3-0.2,0.3-0.5c0-2.1,0.1-4.3,0.1-6.4C23.2,21.2,23.2,21.1,23.2,20.9z
			 M10.7,19.9c0.1,0,0.1,0.1,0.1,0.1c1.8,0.8,3.6,1.7,5.5,2.5c0.1,0.1,0.3,0,0.5,0c1.8-0.7,3.5-1.5,5.3-2.2c0.1,0,0.2-0.1,0.3-0.1
			c-0.1,0-0.1-0.1-0.1-0.1c-1.8-0.8-3.7-1.6-5.5-2.5c-0.1,0-0.3,0-0.4,0c-1.8,0.7-3.5,1.4-5.3,2.2C10.9,19.8,10.8,19.9,10.7,19.9z"
			/>
		<path class="st0" d="M46,13.1c0,1.3,0,2.7-0.1,4c0,0.2-0.1,0.4-0.3,0.5c-2.4,1.1-4.8,2.3-7.1,3.4c-0.2,0.1-0.4,0.1-0.6,0
			c-2.3-1.2-4.7-2.4-7-3.6c-0.2-0.1-0.3-0.2-0.3-0.5c0-2.7,0.1-5.5,0.1-8.2c0-0.2,0.1-0.3,0.3-0.4c2.4-1,4.7-1.9,7.1-2.9
			c0.2-0.1,0.4-0.1,0.7,0c2.3,1,4.6,2.1,7,3.1C46,8.7,46.1,8.8,46.1,9C46.1,10.4,46.1,11.8,46,13.1z M31.9,9.6c0,0.1,0,0.2,0,0.2
			c0,2.2-0.1,4.4-0.1,6.7c0,0.2,0.1,0.3,0.3,0.4c1.9,0.9,3.7,1.8,5.6,2.8c0.1,0,0.2,0.1,0.3,0.1c0-0.1,0-0.1,0-0.2
			c0-2.3,0.1-4.7,0.1-7c0-0.1-0.1-0.3-0.2-0.3c-0.5-0.3-1.1-0.5-1.7-0.8C34.7,10.9,33.3,10.2,31.9,9.6z M45.2,9.8
			C45.1,9.9,45,9.9,44.9,10c-1.9,0.8-3.7,1.6-5.6,2.3c-0.2,0.1-0.3,0.2-0.3,0.5c0,2.2-0.1,4.4-0.1,6.6c0,0.1,0,0.2,0,0.4
			c0.1-0.1,0.2-0.1,0.3-0.1c1.8-0.9,3.7-1.7,5.5-2.6c0.2-0.1,0.3-0.2,0.3-0.5c0-2.1,0.1-4.3,0.1-6.4C45.2,10.1,45.2,10,45.2,9.8z
			 M32.8,8.8c0.1,0,0.1,0.1,0.1,0.1c1.8,0.8,3.6,1.7,5.5,2.5c0.1,0.1,0.3,0,0.5,0c1.8-0.7,3.5-1.5,5.3-2.2c0.1,0,0.2-0.1,0.3-0.1
			C44.3,9,44.3,9,44.2,9c-1.8-0.8-3.7-1.6-5.5-2.5c-0.1,0-0.3,0-0.4,0c-1.8,0.7-3.5,1.4-5.3,2.2C33,8.7,32.9,8.8,32.8,8.8z"/>
		<path class="st0" d="M31.2,12.4c0,1.3,0,2.7-0.1,4c0,0.2-0.1,0.4-0.3,0.5c-2.4,1.1-4.8,2.3-7.1,3.4c-0.2,0.1-0.4,0.1-0.6,0
			c-2.3-1.2-4.7-2.4-7-3.6c-0.2-0.1-0.3-0.2-0.3-0.5c0-2.7,0.1-5.5,0.1-8.2c0-0.2,0.1-0.3,0.3-0.4c2.4-1,4.7-1.9,7.1-2.9
			c0.2-0.1,0.4-0.1,0.7,0c2.3,1,4.6,2.1,7,3.1c0.2,0.1,0.3,0.2,0.3,0.4C31.3,9.7,31.2,11.1,31.2,12.4z M17.1,8.9C17,9,17,9,17,9.1
			c0,2.2-0.1,4.4-0.1,6.7c0,0.2,0.1,0.3,0.3,0.4c1.9,0.9,3.7,1.8,5.6,2.8c0.1,0,0.2,0.1,0.3,0.1c0-0.1,0-0.1,0-0.2
			c0-2.3,0.1-4.7,0.1-7c0-0.1-0.1-0.3-0.2-0.3c-0.5-0.3-1.1-0.5-1.7-0.8C19.9,10.2,18.5,9.5,17.1,8.9z M30.4,9.1
			c-0.1,0.1-0.3,0.1-0.4,0.1c-1.9,0.8-3.7,1.6-5.6,2.3c-0.2,0.1-0.3,0.2-0.3,0.5c0,2.2-0.1,4.4-0.1,6.6c0,0.1,0,0.2,0,0.4
			c0.1-0.1,0.2-0.1,0.3-0.1c1.8-0.9,3.7-1.7,5.5-2.6c0.2-0.1,0.3-0.2,0.3-0.5c0-2.1,0.1-4.3,0.1-6.4C30.4,9.4,30.4,9.3,30.4,9.1z
			 M18,8.1c0.1,0,0.1,0.1,0.1,0.1c1.8,0.8,3.6,1.7,5.5,2.5c0.1,0.1,0.3,0,0.5,0c1.8-0.7,3.5-1.5,5.3-2.2c0.1,0,0.2-0.1,0.3-0.1
			c-0.1,0-0.1-0.1-0.1-0.1c-1.8-0.8-3.7-1.6-5.5-2.5c-0.1,0-0.3,0-0.4,0C21.8,6.6,20,7.3,18.2,8C18.2,8,18.1,8.1,18,8.1z"/>
	</g>
</g>
</svg>
