<?xml version="1.0" encoding="utf-8"?>
<!-- Generator: Adobe Illustrator 25.2.0, SVG Export Plug-In . SVG Version: 6.00 Build 0)  -->
<svg version="1.1" id="Tetrate_Academy" xmlns="http://www.w3.org/2000/svg" xmlns:xlink="http://www.w3.org/1999/xlink" x="0px"
	 y="0px" viewBox="0 0 60 60" style="enable-background:new 0 0 60 60;" xml:space="preserve">
<style type="text/css">
	.st0{fill:#0B1019;}
	.st1{fill:#F15A27;}
</style>
<g>
	<path class="st0" d="M59.2,22.3V8.1c0-2.1-1.7-3.9-3.9-3.9H4.9C2.8,4.2,1,5.9,1,8.1V30h0v10.9c0,2.1,1.7,3.9,3.9,3.9h20.4v6h-5v5
		h19.4v-5h-5v-6h20.5c2.1,0,3.9-1.7,3.9-3.9L59.2,22.3L59.2,22.3z M55.3,42.8h-7.8v0H20.8v0H4.9c-1,0-1.9-0.9-1.9-1.9V13.8h0V8.1
		c0-1,0.9-1.9,1.9-1.9h50.3c1,0,1.9,0.9,1.9,1.9v27.1h0v5.7C57.2,42,56.3,42.8,55.3,42.8z"/>
	<path class="st1" d="M39.5,26.6H21.7c-0.4,0-0.7-0.3-0.7-0.7v0c0-0.4,0.3-0.7,0.7-0.7h17.8c0.4,0,0.7,0.3,0.7,0.7v0
		C40.2,26.3,39.9,26.6,39.5,26.6z"/>
	<path class="st1" d="M32.1,21.2H21.7c-0.4,0-0.7-0.3-0.7-0.7v0c0-0.4,0.3-0.7,0.7-0.7h10.4c0.4,0,0.7,0.3,0.7,0.7v0
		C32.8,20.9,32.5,21.2,32.1,21.2z"/>
	<g>
		<path class="st1" d="M29.9,32.5c-0.7,0-1.1,0.7-1.1,1.6c0,0.9,0.4,1.5,1.1,1.5c0.7,0,1.1-0.7,1.1-1.6C31,33.2,30.6,32.5,29.9,32.5
			z"/>
		<path class="st1" d="M39.5,29.5H21.8c-0.4,0-0.8,0.3-0.8,0.8v7.4c0,0.4,0.3,0.8,0.8,0.8h17.7c0.4,0,0.8-0.3,0.8-0.8v-7.4
			C40.2,29.8,39.9,29.5,39.5,29.5z"/>
	</g>
	<path class="st0" d="M16.6,40.8c0-9.9,0-18.4,0-28c6,0,12.8,0,18.8,0c0,0.3,0,1.1,0,1.4c0,2.1,0,4.1,0,6.2c0,1.1,0.3,1.4,1.4,1.4
		c2.3,0,5.5,0,7.9,0c0,6.8,0,12.1,0,19.1h1.1c0-7.1,0-12.2,0-19.2c0-0.9-0.3-1.6-0.9-2.2c-2.5-2.4-4.9-4.8-7.3-7.2
		c-0.6-0.6-1.1-0.8-1.9-0.8c-6.2,0-12.4,0-18.6,0c-1.3,0-1.6,0.3-1.6,1.5c0,6,0,12,0,18c0,3.9,0,5.9,0,9.8H16.6z M36.5,12.7l7.6,8
		h-7.6V12.7z"/>
</g>
</svg>
