<?xml version="1.0" encoding="utf-8"?>
<!-- Generator: Adobe Illustrator 25.3.1, SVG Export Plug-In . SVG Version: 6.00 Build 0)  -->
<svg version="1.1" id="Layer_1" xmlns="http://www.w3.org/2000/svg" xmlns:xlink="http://www.w3.org/1999/xlink" x="0px" y="0px"
	 viewBox="0 0 60 60" style="enable-background:new 0 0 60 60;" xml:space="preserve">
<style type="text/css">
	.st0{fill:#F05A2B;}
	.st1{fill:#0A0F19;}
</style>
<g>
	<g>
		<g>
			<path class="st0" d="M29.9,59l-0.2,0c-9.7-2.4-17-12.1-17-22.7V24.9l17.2-7.6l17.2,7.6v11.5c0,10.6-7.3,20.3-17,22.7L29.9,59z
				 M14.2,25.9v10.5c0,9.8,6.7,18.9,15.7,21.1c9-2.3,15.7-11.3,15.7-21.1V25.9l-15.7-7L14.2,25.9z"/>
		</g>
		<polygon class="st0" points="26.6,45.9 20.1,39.3 22.4,37 26.6,41.2 37.4,30.4 39.7,32.8 		"/>
	</g>
	<path class="st1" d="M59,26.2V5c0-2.2-1.8-4-4-4H5C2.8,1,1,2.8,1,5v24.6h0v14.1c0,2.2,1.8,4,4,4h5.7l-0.5-1.5H5
		c-1.4,0-2.5-1.1-2.5-2.5V26.2h0V5c0-1.4,1.1-2.5,2.5-2.5h50c1.4,0,2.5,1.1,2.5,2.5v24.6h0v14.1c0,1.4-1.1,2.5-2.5,2.5h-7.3
		l-0.5,1.5H55c2.2,0,4-1.8,4-4L59,26.2L59,26.2z"/>
	<g>
		<path d="M33.9,16.5v-6.2h17.7l0,11.3c0,0.4-0.3,0.7-0.7,0.7H48l1.2,0.9h1.9c0.7,0,1.3-0.6,1.3-1.3V7.9c0-0.7-0.6-1.3-1.3-1.3H34.4
			c-0.7,0-1.3,0.6-1.3,1.3v8.4 M51.7,9.4H33.9V8c0-0.4,0.3-0.7,0.7-0.7H51c0.4,0,0.7,0.3,0.7,0.7V9.4z"/>
	</g>
	<g>
		<path d="M26.8,16.2V7.9c0-0.7-0.6-1.3-1.3-1.3H8.7C8,6.6,7.4,7.1,7.4,7.9v14.1c0,0.7,0.6,1.3,1.3,1.3h1.9l1.2-0.9H8.9
			c-0.4,0-0.7-0.3-0.7-0.7l0-11.3H26v6.2 M8.2,8c0-0.4,0.3-0.7,0.7-0.7h16.4C25.7,7.4,26,7.7,26,8v1.4H8.2V8z"/>
	</g>
	<path d="M51.4,26.1H50v0.8h1.2c0.4,0,0.7,0.3,0.7,0.7v1.4H50v0.9h1.9l0,11.4c0,0.4-0.3,0.7-0.7,0.7h-1.6v0.8h1.8
		c0.7,0,1.3-0.6,1.3-1.3V27.4C52.7,26.7,52.1,26.1,51.4,26.1z"/>
	<path d="M8.7,26.1h1.5v0.8H8.9c-0.4,0-0.7,0.3-0.7,0.7v1.4h1.9v0.9H8.2l0,11.4c0,0.4,0.3,0.7,0.7,0.7h1.6v0.8H8.7
		c-0.7,0-1.3-0.6-1.3-1.3V27.4C7.4,26.7,8,26.1,8.7,26.1z"/>
</g>
</svg>
